%TF.GenerationSoftware,KiCad,Pcbnew,5.1.5+dfsg1-2build2*%
%TF.CreationDate,2022-07-17T21:36:19+12:00*%
%TF.ProjectId,automatic-plant-watering,6175746f-6d61-4746-9963-2d706c616e74,rev?*%
%TF.SameCoordinates,Original*%
%TF.FileFunction,Legend,Top*%
%TF.FilePolarity,Positive*%
%FSLAX46Y46*%
G04 Gerber Fmt 4.6, Leading zero omitted, Abs format (unit mm)*
G04 Created by KiCad (PCBNEW 5.1.5+dfsg1-2build2) date 2022-07-17 21:36:19*
%MOMM*%
%LPD*%
G04 APERTURE LIST*
%ADD10C,0.150000*%
%ADD11C,0.120000*%
G04 APERTURE END LIST*
D10*
X264922047Y-131036368D02*
X265683952Y-131036368D01*
X265303000Y-131417320D02*
X265303000Y-130655416D01*
X248977092Y-113742220D02*
X248977092Y-114456506D01*
X248929473Y-114599363D01*
X248834235Y-114694601D01*
X248691378Y-114742220D01*
X248596140Y-114742220D01*
X249929473Y-114742220D02*
X249453282Y-114742220D01*
X249453282Y-113742220D01*
X250834235Y-114646982D02*
X250786616Y-114694601D01*
X250643759Y-114742220D01*
X250548520Y-114742220D01*
X250405663Y-114694601D01*
X250310425Y-114599363D01*
X250262806Y-114504125D01*
X250215187Y-114313649D01*
X250215187Y-114170792D01*
X250262806Y-113980316D01*
X250310425Y-113885078D01*
X250405663Y-113789840D01*
X250548520Y-113742220D01*
X250643759Y-113742220D01*
X250786616Y-113789840D01*
X250834235Y-113837459D01*
X251548520Y-113742220D02*
X251548520Y-114456506D01*
X251500901Y-114599363D01*
X251405663Y-114694601D01*
X251262806Y-114742220D01*
X251167568Y-114742220D01*
X252500901Y-114742220D02*
X252024711Y-114742220D01*
X252024711Y-113742220D01*
X253405663Y-114646982D02*
X253358044Y-114694601D01*
X253215187Y-114742220D01*
X253119949Y-114742220D01*
X252977092Y-114694601D01*
X252881854Y-114599363D01*
X252834235Y-114504125D01*
X252786616Y-114313649D01*
X252786616Y-114170792D01*
X252834235Y-113980316D01*
X252881854Y-113885078D01*
X252977092Y-113789840D01*
X253119949Y-113742220D01*
X253215187Y-113742220D01*
X253358044Y-113789840D01*
X253405663Y-113837459D01*
X254119949Y-113742220D02*
X254119949Y-114456506D01*
X254072330Y-114599363D01*
X253977092Y-114694601D01*
X253834235Y-114742220D01*
X253738997Y-114742220D01*
X255072330Y-114742220D02*
X254596140Y-114742220D01*
X254596140Y-113742220D01*
X255977092Y-114646982D02*
X255929473Y-114694601D01*
X255786616Y-114742220D01*
X255691378Y-114742220D01*
X255548520Y-114694601D01*
X255453282Y-114599363D01*
X255405663Y-114504125D01*
X255358044Y-114313649D01*
X255358044Y-114170792D01*
X255405663Y-113980316D01*
X255453282Y-113885078D01*
X255548520Y-113789840D01*
X255691378Y-113742220D01*
X255786616Y-113742220D01*
X255929473Y-113789840D01*
X255977092Y-113837459D01*
X256691378Y-113742220D02*
X256691378Y-114456506D01*
X256643759Y-114599363D01*
X256548520Y-114694601D01*
X256405663Y-114742220D01*
X256310425Y-114742220D01*
X257643759Y-114742220D02*
X257167568Y-114742220D01*
X257167568Y-113742220D01*
X258548520Y-114646982D02*
X258500901Y-114694601D01*
X258358044Y-114742220D01*
X258262806Y-114742220D01*
X258119949Y-114694601D01*
X258024711Y-114599363D01*
X257977092Y-114504125D01*
X257929473Y-114313649D01*
X257929473Y-114170792D01*
X257977092Y-113980316D01*
X258024711Y-113885078D01*
X258119949Y-113789840D01*
X258262806Y-113742220D01*
X258358044Y-113742220D01*
X258500901Y-113789840D01*
X258548520Y-113837459D01*
X268732095Y-109050200D02*
X268636857Y-109002580D01*
X268494000Y-109002580D01*
X268351142Y-109050200D01*
X268255904Y-109145438D01*
X268208285Y-109240676D01*
X268160666Y-109431152D01*
X268160666Y-109574009D01*
X268208285Y-109764485D01*
X268255904Y-109859723D01*
X268351142Y-109954961D01*
X268494000Y-110002580D01*
X268589238Y-110002580D01*
X268732095Y-109954961D01*
X268779714Y-109907342D01*
X268779714Y-109574009D01*
X268589238Y-109574009D01*
X269208285Y-110002580D02*
X269208285Y-109002580D01*
X269779714Y-110002580D01*
X269779714Y-109002580D01*
X270255904Y-110002580D02*
X270255904Y-109002580D01*
X270494000Y-109002580D01*
X270636857Y-109050200D01*
X270732095Y-109145438D01*
X270779714Y-109240676D01*
X270827333Y-109431152D01*
X270827333Y-109574009D01*
X270779714Y-109764485D01*
X270732095Y-109859723D01*
X270636857Y-109954961D01*
X270494000Y-110002580D01*
X270255904Y-110002580D01*
X268135195Y-106437180D02*
X268706623Y-106437180D01*
X268420909Y-107437180D02*
X268420909Y-106437180D01*
X268944719Y-106437180D02*
X269611385Y-107437180D01*
X269611385Y-106437180D02*
X268944719Y-107437180D01*
X268806633Y-104770180D02*
X268473300Y-104293990D01*
X268235204Y-104770180D02*
X268235204Y-103770180D01*
X268616157Y-103770180D01*
X268711395Y-103817800D01*
X268759014Y-103865419D01*
X268806633Y-103960657D01*
X268806633Y-104103514D01*
X268759014Y-104198752D01*
X268711395Y-104246371D01*
X268616157Y-104293990D01*
X268235204Y-104293990D01*
X269139966Y-103770180D02*
X269806633Y-104770180D01*
X269806633Y-103770180D02*
X269139966Y-104770180D01*
X237557060Y-115316260D02*
X237223727Y-114840070D01*
X236985632Y-115316260D02*
X236985632Y-114316260D01*
X237366584Y-114316260D01*
X237461822Y-114363880D01*
X237509441Y-114411499D01*
X237557060Y-114506737D01*
X237557060Y-114649594D01*
X237509441Y-114744832D01*
X237461822Y-114792451D01*
X237366584Y-114840070D01*
X236985632Y-114840070D01*
X237938013Y-115268641D02*
X238080870Y-115316260D01*
X238318965Y-115316260D01*
X238414203Y-115268641D01*
X238461822Y-115221022D01*
X238509441Y-115125784D01*
X238509441Y-115030546D01*
X238461822Y-114935308D01*
X238414203Y-114887689D01*
X238318965Y-114840070D01*
X238128489Y-114792451D01*
X238033251Y-114744832D01*
X237985632Y-114697213D01*
X237938013Y-114601975D01*
X237938013Y-114506737D01*
X237985632Y-114411499D01*
X238033251Y-114363880D01*
X238128489Y-114316260D01*
X238366584Y-114316260D01*
X238509441Y-114363880D01*
X238795156Y-114316260D02*
X239366584Y-114316260D01*
X239080870Y-115316260D02*
X239080870Y-114316260D01*
X253696957Y-127601671D02*
X253839814Y-127649290D01*
X253887433Y-127696909D01*
X253935052Y-127792147D01*
X253935052Y-127935004D01*
X253887433Y-128030242D01*
X253839814Y-128077861D01*
X253744576Y-128125480D01*
X253363623Y-128125480D01*
X253363623Y-127125480D01*
X253696957Y-127125480D01*
X253792195Y-127173100D01*
X253839814Y-127220719D01*
X253887433Y-127315957D01*
X253887433Y-127411195D01*
X253839814Y-127506433D01*
X253792195Y-127554052D01*
X253696957Y-127601671D01*
X253363623Y-127601671D01*
X254554100Y-127125480D02*
X254744576Y-127125480D01*
X254839814Y-127173100D01*
X254935052Y-127268338D01*
X254982671Y-127458814D01*
X254982671Y-127792147D01*
X254935052Y-127982623D01*
X254839814Y-128077861D01*
X254744576Y-128125480D01*
X254554100Y-128125480D01*
X254458861Y-128077861D01*
X254363623Y-127982623D01*
X254316004Y-127792147D01*
X254316004Y-127458814D01*
X254363623Y-127268338D01*
X254458861Y-127173100D01*
X254554100Y-127125480D01*
X255601719Y-127125480D02*
X255792195Y-127125480D01*
X255887433Y-127173100D01*
X255982671Y-127268338D01*
X256030290Y-127458814D01*
X256030290Y-127792147D01*
X255982671Y-127982623D01*
X255887433Y-128077861D01*
X255792195Y-128125480D01*
X255601719Y-128125480D01*
X255506480Y-128077861D01*
X255411242Y-127982623D01*
X255363623Y-127792147D01*
X255363623Y-127458814D01*
X255411242Y-127268338D01*
X255506480Y-127173100D01*
X255601719Y-127125480D01*
X256316004Y-127125480D02*
X256887433Y-127125480D01*
X256601719Y-128125480D02*
X256601719Y-127125480D01*
X246116623Y-132675380D02*
X246735671Y-132675380D01*
X246402338Y-133056333D01*
X246545195Y-133056333D01*
X246640433Y-133103952D01*
X246688052Y-133151571D01*
X246735671Y-133246809D01*
X246735671Y-133484904D01*
X246688052Y-133580142D01*
X246640433Y-133627761D01*
X246545195Y-133675380D01*
X246259480Y-133675380D01*
X246164242Y-133627761D01*
X246116623Y-133580142D01*
X247069004Y-133008714D02*
X247307100Y-133675380D01*
X247545195Y-133008714D01*
X247830909Y-132675380D02*
X248449957Y-132675380D01*
X248116623Y-133056333D01*
X248259480Y-133056333D01*
X248354719Y-133103952D01*
X248402338Y-133151571D01*
X248449957Y-133246809D01*
X248449957Y-133484904D01*
X248402338Y-133580142D01*
X248354719Y-133627761D01*
X248259480Y-133675380D01*
X247973766Y-133675380D01*
X247878528Y-133627761D01*
X247830909Y-133580142D01*
X239909342Y-145821091D02*
X240242676Y-145821091D01*
X240385533Y-146344900D02*
X239909342Y-146344900D01*
X239909342Y-145344900D01*
X240385533Y-145344900D01*
X240766485Y-146297281D02*
X240909342Y-146344900D01*
X241147438Y-146344900D01*
X241242676Y-146297281D01*
X241290295Y-146249662D01*
X241337914Y-146154424D01*
X241337914Y-146059186D01*
X241290295Y-145963948D01*
X241242676Y-145916329D01*
X241147438Y-145868710D01*
X240956961Y-145821091D01*
X240861723Y-145773472D01*
X240814104Y-145725853D01*
X240766485Y-145630615D01*
X240766485Y-145535377D01*
X240814104Y-145440139D01*
X240861723Y-145392520D01*
X240956961Y-145344900D01*
X241195057Y-145344900D01*
X241337914Y-145392520D01*
X241766485Y-146344900D02*
X241766485Y-145344900D01*
X242147438Y-145344900D01*
X242242676Y-145392520D01*
X242290295Y-145440139D01*
X242337914Y-145535377D01*
X242337914Y-145678234D01*
X242290295Y-145773472D01*
X242242676Y-145821091D01*
X242147438Y-145868710D01*
X241766485Y-145868710D01*
X242766485Y-145963948D02*
X243528390Y-145963948D01*
X243909342Y-145344900D02*
X244528390Y-145344900D01*
X244195057Y-145725853D01*
X244337914Y-145725853D01*
X244433152Y-145773472D01*
X244480771Y-145821091D01*
X244528390Y-145916329D01*
X244528390Y-146154424D01*
X244480771Y-146249662D01*
X244433152Y-146297281D01*
X244337914Y-146344900D01*
X244052200Y-146344900D01*
X243956961Y-146297281D01*
X243909342Y-146249662D01*
X244909342Y-145440139D02*
X244956961Y-145392520D01*
X245052200Y-145344900D01*
X245290295Y-145344900D01*
X245385533Y-145392520D01*
X245433152Y-145440139D01*
X245480771Y-145535377D01*
X245480771Y-145630615D01*
X245433152Y-145773472D01*
X244861723Y-146344900D01*
X245480771Y-146344900D01*
X246623628Y-146059186D02*
X247099819Y-146059186D01*
X246528390Y-146344900D02*
X246861723Y-145344900D01*
X247195057Y-146344900D01*
X247956961Y-145678234D02*
X247956961Y-146344900D01*
X247528390Y-145678234D02*
X247528390Y-146202043D01*
X247576009Y-146297281D01*
X247671247Y-146344900D01*
X247814104Y-146344900D01*
X247909342Y-146297281D01*
X247956961Y-146249662D01*
X248290295Y-145678234D02*
X248671247Y-145678234D01*
X248433152Y-145344900D02*
X248433152Y-146202043D01*
X248480771Y-146297281D01*
X248576009Y-146344900D01*
X248671247Y-146344900D01*
X249147438Y-146344900D02*
X249052200Y-146297281D01*
X249004580Y-146249662D01*
X248956961Y-146154424D01*
X248956961Y-145868710D01*
X249004580Y-145773472D01*
X249052200Y-145725853D01*
X249147438Y-145678234D01*
X249290295Y-145678234D01*
X249385533Y-145725853D01*
X249433152Y-145773472D01*
X249480771Y-145868710D01*
X249480771Y-146154424D01*
X249433152Y-146249662D01*
X249385533Y-146297281D01*
X249290295Y-146344900D01*
X249147438Y-146344900D01*
X249909342Y-146344900D02*
X249909342Y-145678234D01*
X249909342Y-145773472D02*
X249956961Y-145725853D01*
X250052200Y-145678234D01*
X250195057Y-145678234D01*
X250290295Y-145725853D01*
X250337914Y-145821091D01*
X250337914Y-146344900D01*
X250337914Y-145821091D02*
X250385533Y-145725853D01*
X250480771Y-145678234D01*
X250623628Y-145678234D01*
X250718866Y-145725853D01*
X250766485Y-145821091D01*
X250766485Y-146344900D01*
X251671247Y-146344900D02*
X251671247Y-145821091D01*
X251623628Y-145725853D01*
X251528390Y-145678234D01*
X251337914Y-145678234D01*
X251242676Y-145725853D01*
X251671247Y-146297281D02*
X251576009Y-146344900D01*
X251337914Y-146344900D01*
X251242676Y-146297281D01*
X251195057Y-146202043D01*
X251195057Y-146106805D01*
X251242676Y-146011567D01*
X251337914Y-145963948D01*
X251576009Y-145963948D01*
X251671247Y-145916329D01*
X252004580Y-145678234D02*
X252385533Y-145678234D01*
X252147438Y-145344900D02*
X252147438Y-146202043D01*
X252195057Y-146297281D01*
X252290295Y-146344900D01*
X252385533Y-146344900D01*
X252718866Y-146344900D02*
X252718866Y-145678234D01*
X252718866Y-145344900D02*
X252671247Y-145392520D01*
X252718866Y-145440139D01*
X252766485Y-145392520D01*
X252718866Y-145344900D01*
X252718866Y-145440139D01*
X253623628Y-146297281D02*
X253528390Y-146344900D01*
X253337914Y-146344900D01*
X253242676Y-146297281D01*
X253195057Y-146249662D01*
X253147438Y-146154424D01*
X253147438Y-145868710D01*
X253195057Y-145773472D01*
X253242676Y-145725853D01*
X253337914Y-145678234D01*
X253528390Y-145678234D01*
X253623628Y-145725853D01*
X254718866Y-145344900D02*
X254956961Y-146344900D01*
X255147438Y-145630615D01*
X255337914Y-146344900D01*
X255576009Y-145344900D01*
X256385533Y-146344900D02*
X256385533Y-145821091D01*
X256337914Y-145725853D01*
X256242676Y-145678234D01*
X256052200Y-145678234D01*
X255956961Y-145725853D01*
X256385533Y-146297281D02*
X256290295Y-146344900D01*
X256052200Y-146344900D01*
X255956961Y-146297281D01*
X255909342Y-146202043D01*
X255909342Y-146106805D01*
X255956961Y-146011567D01*
X256052200Y-145963948D01*
X256290295Y-145963948D01*
X256385533Y-145916329D01*
X256718866Y-145678234D02*
X257099819Y-145678234D01*
X256861723Y-145344900D02*
X256861723Y-146202043D01*
X256909342Y-146297281D01*
X257004580Y-146344900D01*
X257099819Y-146344900D01*
X257814104Y-146297281D02*
X257718866Y-146344900D01*
X257528390Y-146344900D01*
X257433152Y-146297281D01*
X257385533Y-146202043D01*
X257385533Y-145821091D01*
X257433152Y-145725853D01*
X257528390Y-145678234D01*
X257718866Y-145678234D01*
X257814104Y-145725853D01*
X257861723Y-145821091D01*
X257861723Y-145916329D01*
X257385533Y-146011567D01*
X258290295Y-146344900D02*
X258290295Y-145678234D01*
X258290295Y-145868710D02*
X258337914Y-145773472D01*
X258385533Y-145725853D01*
X258480771Y-145678234D01*
X258576009Y-145678234D01*
X259290295Y-146297281D02*
X259195057Y-146344900D01*
X259004580Y-146344900D01*
X258909342Y-146297281D01*
X258861723Y-146202043D01*
X258861723Y-145821091D01*
X258909342Y-145725853D01*
X259004580Y-145678234D01*
X259195057Y-145678234D01*
X259290295Y-145725853D01*
X259337914Y-145821091D01*
X259337914Y-145916329D01*
X258861723Y-146011567D01*
X259766485Y-146344900D02*
X259766485Y-145678234D01*
X259766485Y-145868710D02*
X259814104Y-145773472D01*
X259861723Y-145725853D01*
X259956961Y-145678234D01*
X260052200Y-145678234D01*
X261147438Y-145963948D02*
X261909342Y-145963948D01*
X263147438Y-146344900D02*
X263147438Y-145344900D01*
X263147438Y-145821091D02*
X263718866Y-145821091D01*
X263718866Y-146344900D02*
X263718866Y-145344900D01*
X264195057Y-146249662D02*
X264242676Y-146297281D01*
X264195057Y-146344900D01*
X264147438Y-146297281D01*
X264195057Y-146249662D01*
X264195057Y-146344900D01*
X264671247Y-146344900D02*
X264671247Y-145344900D01*
X264909342Y-145344900D01*
X265052200Y-145392520D01*
X265147438Y-145487758D01*
X265195057Y-145582996D01*
X265242676Y-145773472D01*
X265242676Y-145916329D01*
X265195057Y-146106805D01*
X265147438Y-146202043D01*
X265052200Y-146297281D01*
X264909342Y-146344900D01*
X264671247Y-146344900D01*
X264698314Y-124204361D02*
X264841171Y-124251980D01*
X265079266Y-124251980D01*
X265174504Y-124204361D01*
X265222123Y-124156742D01*
X265269742Y-124061504D01*
X265269742Y-123966266D01*
X265222123Y-123871028D01*
X265174504Y-123823409D01*
X265079266Y-123775790D01*
X264888790Y-123728171D01*
X264793552Y-123680552D01*
X264745933Y-123632933D01*
X264698314Y-123537695D01*
X264698314Y-123442457D01*
X264745933Y-123347219D01*
X264793552Y-123299600D01*
X264888790Y-123251980D01*
X265126885Y-123251980D01*
X265269742Y-123299600D01*
X265888790Y-123251980D02*
X266079266Y-123251980D01*
X266174504Y-123299600D01*
X266269742Y-123394838D01*
X266317361Y-123585314D01*
X266317361Y-123918647D01*
X266269742Y-124109123D01*
X266174504Y-124204361D01*
X266079266Y-124251980D01*
X265888790Y-124251980D01*
X265793552Y-124204361D01*
X265698314Y-124109123D01*
X265650695Y-123918647D01*
X265650695Y-123585314D01*
X265698314Y-123394838D01*
X265793552Y-123299600D01*
X265888790Y-123251980D01*
X267222123Y-124251980D02*
X266745933Y-124251980D01*
X266745933Y-123251980D01*
X265785647Y-143322348D02*
X266547552Y-143322348D01*
X266166600Y-143703300D02*
X266166600Y-142941396D01*
X264833266Y-133548380D02*
X264833266Y-132548380D01*
X265214219Y-132548380D01*
X265309457Y-132596000D01*
X265357076Y-132643619D01*
X265404695Y-132738857D01*
X265404695Y-132881714D01*
X265357076Y-132976952D01*
X265309457Y-133024571D01*
X265214219Y-133072190D01*
X264833266Y-133072190D01*
X265738028Y-132548380D02*
X265976123Y-133548380D01*
X266166600Y-132834095D01*
X266357076Y-133548380D01*
X266595171Y-132548380D01*
X267547552Y-133548380D02*
X267214219Y-133072190D01*
X266976123Y-133548380D02*
X266976123Y-132548380D01*
X267357076Y-132548380D01*
X267452314Y-132596000D01*
X267499933Y-132643619D01*
X267547552Y-132738857D01*
X267547552Y-132881714D01*
X267499933Y-132976952D01*
X267452314Y-133024571D01*
X267357076Y-133072190D01*
X266976123Y-133072190D01*
X239069119Y-135776176D02*
X240069119Y-135776176D01*
X239354833Y-136109509D01*
X240069119Y-136442842D01*
X239069119Y-136442842D01*
X240069119Y-137109509D02*
X240069119Y-137299985D01*
X240021500Y-137395223D01*
X239926261Y-137490461D01*
X239735785Y-137538080D01*
X239402452Y-137538080D01*
X239211976Y-137490461D01*
X239116738Y-137395223D01*
X239069119Y-137299985D01*
X239069119Y-137109509D01*
X239116738Y-137014271D01*
X239211976Y-136919033D01*
X239402452Y-136871414D01*
X239735785Y-136871414D01*
X239926261Y-136919033D01*
X240021500Y-137014271D01*
X240069119Y-137109509D01*
X239069119Y-137966652D02*
X240069119Y-137966652D01*
X239116738Y-138395223D02*
X239069119Y-138538080D01*
X239069119Y-138776176D01*
X239116738Y-138871414D01*
X239164357Y-138919033D01*
X239259595Y-138966652D01*
X239354833Y-138966652D01*
X239450071Y-138919033D01*
X239497690Y-138871414D01*
X239545309Y-138776176D01*
X239592928Y-138585700D01*
X239640547Y-138490461D01*
X239688166Y-138442842D01*
X239783404Y-138395223D01*
X239878642Y-138395223D01*
X239973880Y-138442842D01*
X240021500Y-138490461D01*
X240069119Y-138585700D01*
X240069119Y-138823795D01*
X240021500Y-138966652D01*
X240069119Y-139252366D02*
X240069119Y-139823795D01*
X239069119Y-139538080D02*
X240069119Y-139538080D01*
X240069119Y-140157128D02*
X239259595Y-140157128D01*
X239164357Y-140204747D01*
X239116738Y-140252366D01*
X239069119Y-140347604D01*
X239069119Y-140538080D01*
X239116738Y-140633319D01*
X239164357Y-140680938D01*
X239259595Y-140728557D01*
X240069119Y-140728557D01*
X239069119Y-141776176D02*
X239545309Y-141442842D01*
X239069119Y-141204747D02*
X240069119Y-141204747D01*
X240069119Y-141585700D01*
X240021500Y-141680938D01*
X239973880Y-141728557D01*
X239878642Y-141776176D01*
X239735785Y-141776176D01*
X239640547Y-141728557D01*
X239592928Y-141680938D01*
X239545309Y-141585700D01*
X239545309Y-141204747D01*
X239592928Y-142204747D02*
X239592928Y-142538080D01*
X239069119Y-142680938D02*
X239069119Y-142204747D01*
X240069119Y-142204747D01*
X240069119Y-142680938D01*
X237466738Y-135966652D02*
X237419119Y-136109509D01*
X237419119Y-136347604D01*
X237466738Y-136442842D01*
X237514357Y-136490461D01*
X237609595Y-136538080D01*
X237704833Y-136538080D01*
X237800071Y-136490461D01*
X237847690Y-136442842D01*
X237895309Y-136347604D01*
X237942928Y-136157128D01*
X237990547Y-136061890D01*
X238038166Y-136014271D01*
X238133404Y-135966652D01*
X238228642Y-135966652D01*
X238323880Y-136014271D01*
X238371500Y-136061890D01*
X238419119Y-136157128D01*
X238419119Y-136395223D01*
X238371500Y-136538080D01*
X237942928Y-136966652D02*
X237942928Y-137299985D01*
X237419119Y-137442842D02*
X237419119Y-136966652D01*
X238419119Y-136966652D01*
X238419119Y-137442842D01*
X237419119Y-137871414D02*
X238419119Y-137871414D01*
X237419119Y-138442842D01*
X238419119Y-138442842D01*
X237466738Y-138871414D02*
X237419119Y-139014271D01*
X237419119Y-139252366D01*
X237466738Y-139347604D01*
X237514357Y-139395223D01*
X237609595Y-139442842D01*
X237704833Y-139442842D01*
X237800071Y-139395223D01*
X237847690Y-139347604D01*
X237895309Y-139252366D01*
X237942928Y-139061890D01*
X237990547Y-138966652D01*
X238038166Y-138919033D01*
X238133404Y-138871414D01*
X238228642Y-138871414D01*
X238323880Y-138919033D01*
X238371500Y-138966652D01*
X238419119Y-139061890D01*
X238419119Y-139299985D01*
X238371500Y-139442842D01*
X238419119Y-140061890D02*
X238419119Y-140252366D01*
X238371500Y-140347604D01*
X238276261Y-140442842D01*
X238085785Y-140490461D01*
X237752452Y-140490461D01*
X237561976Y-140442842D01*
X237466738Y-140347604D01*
X237419119Y-140252366D01*
X237419119Y-140061890D01*
X237466738Y-139966652D01*
X237561976Y-139871414D01*
X237752452Y-139823795D01*
X238085785Y-139823795D01*
X238276261Y-139871414D01*
X238371500Y-139966652D01*
X238419119Y-140061890D01*
X237419119Y-141490461D02*
X237895309Y-141157128D01*
X237419119Y-140919033D02*
X238419119Y-140919033D01*
X238419119Y-141299985D01*
X238371500Y-141395223D01*
X238323880Y-141442842D01*
X238228642Y-141490461D01*
X238085785Y-141490461D01*
X237990547Y-141442842D01*
X237942928Y-141395223D01*
X237895309Y-141299985D01*
X237895309Y-140919033D01*
X238419119Y-142585700D02*
X238419119Y-143204747D01*
X238038166Y-142871414D01*
X238038166Y-143014271D01*
X237990547Y-143109509D01*
X237942928Y-143157128D01*
X237847690Y-143204747D01*
X237609595Y-143204747D01*
X237514357Y-143157128D01*
X237466738Y-143109509D01*
X237419119Y-143014271D01*
X237419119Y-142728557D01*
X237466738Y-142633319D01*
X237514357Y-142585700D01*
X239081819Y-126695676D02*
X240081819Y-126695676D01*
X239367533Y-127029009D01*
X240081819Y-127362342D01*
X239081819Y-127362342D01*
X240081819Y-128029009D02*
X240081819Y-128219485D01*
X240034200Y-128314723D01*
X239938961Y-128409961D01*
X239748485Y-128457580D01*
X239415152Y-128457580D01*
X239224676Y-128409961D01*
X239129438Y-128314723D01*
X239081819Y-128219485D01*
X239081819Y-128029009D01*
X239129438Y-127933771D01*
X239224676Y-127838533D01*
X239415152Y-127790914D01*
X239748485Y-127790914D01*
X239938961Y-127838533D01*
X240034200Y-127933771D01*
X240081819Y-128029009D01*
X239081819Y-128886152D02*
X240081819Y-128886152D01*
X239129438Y-129314723D02*
X239081819Y-129457580D01*
X239081819Y-129695676D01*
X239129438Y-129790914D01*
X239177057Y-129838533D01*
X239272295Y-129886152D01*
X239367533Y-129886152D01*
X239462771Y-129838533D01*
X239510390Y-129790914D01*
X239558009Y-129695676D01*
X239605628Y-129505200D01*
X239653247Y-129409961D01*
X239700866Y-129362342D01*
X239796104Y-129314723D01*
X239891342Y-129314723D01*
X239986580Y-129362342D01*
X240034200Y-129409961D01*
X240081819Y-129505200D01*
X240081819Y-129743295D01*
X240034200Y-129886152D01*
X240081819Y-130171866D02*
X240081819Y-130743295D01*
X239081819Y-130457580D02*
X240081819Y-130457580D01*
X240081819Y-131076628D02*
X239272295Y-131076628D01*
X239177057Y-131124247D01*
X239129438Y-131171866D01*
X239081819Y-131267104D01*
X239081819Y-131457580D01*
X239129438Y-131552819D01*
X239177057Y-131600438D01*
X239272295Y-131648057D01*
X240081819Y-131648057D01*
X239081819Y-132695676D02*
X239558009Y-132362342D01*
X239081819Y-132124247D02*
X240081819Y-132124247D01*
X240081819Y-132505200D01*
X240034200Y-132600438D01*
X239986580Y-132648057D01*
X239891342Y-132695676D01*
X239748485Y-132695676D01*
X239653247Y-132648057D01*
X239605628Y-132600438D01*
X239558009Y-132505200D01*
X239558009Y-132124247D01*
X239605628Y-133124247D02*
X239605628Y-133457580D01*
X239081819Y-133600438D02*
X239081819Y-133124247D01*
X240081819Y-133124247D01*
X240081819Y-133600438D01*
X237479438Y-126886152D02*
X237431819Y-127029009D01*
X237431819Y-127267104D01*
X237479438Y-127362342D01*
X237527057Y-127409961D01*
X237622295Y-127457580D01*
X237717533Y-127457580D01*
X237812771Y-127409961D01*
X237860390Y-127362342D01*
X237908009Y-127267104D01*
X237955628Y-127076628D01*
X238003247Y-126981390D01*
X238050866Y-126933771D01*
X238146104Y-126886152D01*
X238241342Y-126886152D01*
X238336580Y-126933771D01*
X238384200Y-126981390D01*
X238431819Y-127076628D01*
X238431819Y-127314723D01*
X238384200Y-127457580D01*
X237955628Y-127886152D02*
X237955628Y-128219485D01*
X237431819Y-128362342D02*
X237431819Y-127886152D01*
X238431819Y-127886152D01*
X238431819Y-128362342D01*
X237431819Y-128790914D02*
X238431819Y-128790914D01*
X237431819Y-129362342D01*
X238431819Y-129362342D01*
X237479438Y-129790914D02*
X237431819Y-129933771D01*
X237431819Y-130171866D01*
X237479438Y-130267104D01*
X237527057Y-130314723D01*
X237622295Y-130362342D01*
X237717533Y-130362342D01*
X237812771Y-130314723D01*
X237860390Y-130267104D01*
X237908009Y-130171866D01*
X237955628Y-129981390D01*
X238003247Y-129886152D01*
X238050866Y-129838533D01*
X238146104Y-129790914D01*
X238241342Y-129790914D01*
X238336580Y-129838533D01*
X238384200Y-129886152D01*
X238431819Y-129981390D01*
X238431819Y-130219485D01*
X238384200Y-130362342D01*
X238431819Y-130981390D02*
X238431819Y-131171866D01*
X238384200Y-131267104D01*
X238288961Y-131362342D01*
X238098485Y-131409961D01*
X237765152Y-131409961D01*
X237574676Y-131362342D01*
X237479438Y-131267104D01*
X237431819Y-131171866D01*
X237431819Y-130981390D01*
X237479438Y-130886152D01*
X237574676Y-130790914D01*
X237765152Y-130743295D01*
X238098485Y-130743295D01*
X238288961Y-130790914D01*
X238384200Y-130886152D01*
X238431819Y-130981390D01*
X237431819Y-132409961D02*
X237908009Y-132076628D01*
X237431819Y-131838533D02*
X238431819Y-131838533D01*
X238431819Y-132219485D01*
X238384200Y-132314723D01*
X238336580Y-132362342D01*
X238241342Y-132409961D01*
X238098485Y-132409961D01*
X238003247Y-132362342D01*
X237955628Y-132314723D01*
X237908009Y-132219485D01*
X237908009Y-131838533D01*
X238336580Y-133552819D02*
X238384200Y-133600438D01*
X238431819Y-133695676D01*
X238431819Y-133933771D01*
X238384200Y-134029009D01*
X238336580Y-134076628D01*
X238241342Y-134124247D01*
X238146104Y-134124247D01*
X238003247Y-134076628D01*
X237431819Y-133505200D01*
X237431819Y-134124247D01*
X239094519Y-118008876D02*
X240094519Y-118008876D01*
X239380233Y-118342209D01*
X240094519Y-118675542D01*
X239094519Y-118675542D01*
X240094519Y-119342209D02*
X240094519Y-119532685D01*
X240046900Y-119627923D01*
X239951661Y-119723161D01*
X239761185Y-119770780D01*
X239427852Y-119770780D01*
X239237376Y-119723161D01*
X239142138Y-119627923D01*
X239094519Y-119532685D01*
X239094519Y-119342209D01*
X239142138Y-119246971D01*
X239237376Y-119151733D01*
X239427852Y-119104114D01*
X239761185Y-119104114D01*
X239951661Y-119151733D01*
X240046900Y-119246971D01*
X240094519Y-119342209D01*
X239094519Y-120199352D02*
X240094519Y-120199352D01*
X239142138Y-120627923D02*
X239094519Y-120770780D01*
X239094519Y-121008876D01*
X239142138Y-121104114D01*
X239189757Y-121151733D01*
X239284995Y-121199352D01*
X239380233Y-121199352D01*
X239475471Y-121151733D01*
X239523090Y-121104114D01*
X239570709Y-121008876D01*
X239618328Y-120818400D01*
X239665947Y-120723161D01*
X239713566Y-120675542D01*
X239808804Y-120627923D01*
X239904042Y-120627923D01*
X239999280Y-120675542D01*
X240046900Y-120723161D01*
X240094519Y-120818400D01*
X240094519Y-121056495D01*
X240046900Y-121199352D01*
X240094519Y-121485066D02*
X240094519Y-122056495D01*
X239094519Y-121770780D02*
X240094519Y-121770780D01*
X240094519Y-122389828D02*
X239284995Y-122389828D01*
X239189757Y-122437447D01*
X239142138Y-122485066D01*
X239094519Y-122580304D01*
X239094519Y-122770780D01*
X239142138Y-122866019D01*
X239189757Y-122913638D01*
X239284995Y-122961257D01*
X240094519Y-122961257D01*
X239094519Y-124008876D02*
X239570709Y-123675542D01*
X239094519Y-123437447D02*
X240094519Y-123437447D01*
X240094519Y-123818400D01*
X240046900Y-123913638D01*
X239999280Y-123961257D01*
X239904042Y-124008876D01*
X239761185Y-124008876D01*
X239665947Y-123961257D01*
X239618328Y-123913638D01*
X239570709Y-123818400D01*
X239570709Y-123437447D01*
X239618328Y-124437447D02*
X239618328Y-124770780D01*
X239094519Y-124913638D02*
X239094519Y-124437447D01*
X240094519Y-124437447D01*
X240094519Y-124913638D01*
X237492138Y-118199352D02*
X237444519Y-118342209D01*
X237444519Y-118580304D01*
X237492138Y-118675542D01*
X237539757Y-118723161D01*
X237634995Y-118770780D01*
X237730233Y-118770780D01*
X237825471Y-118723161D01*
X237873090Y-118675542D01*
X237920709Y-118580304D01*
X237968328Y-118389828D01*
X238015947Y-118294590D01*
X238063566Y-118246971D01*
X238158804Y-118199352D01*
X238254042Y-118199352D01*
X238349280Y-118246971D01*
X238396900Y-118294590D01*
X238444519Y-118389828D01*
X238444519Y-118627923D01*
X238396900Y-118770780D01*
X237968328Y-119199352D02*
X237968328Y-119532685D01*
X237444519Y-119675542D02*
X237444519Y-119199352D01*
X238444519Y-119199352D01*
X238444519Y-119675542D01*
X237444519Y-120104114D02*
X238444519Y-120104114D01*
X237444519Y-120675542D01*
X238444519Y-120675542D01*
X237492138Y-121104114D02*
X237444519Y-121246971D01*
X237444519Y-121485066D01*
X237492138Y-121580304D01*
X237539757Y-121627923D01*
X237634995Y-121675542D01*
X237730233Y-121675542D01*
X237825471Y-121627923D01*
X237873090Y-121580304D01*
X237920709Y-121485066D01*
X237968328Y-121294590D01*
X238015947Y-121199352D01*
X238063566Y-121151733D01*
X238158804Y-121104114D01*
X238254042Y-121104114D01*
X238349280Y-121151733D01*
X238396900Y-121199352D01*
X238444519Y-121294590D01*
X238444519Y-121532685D01*
X238396900Y-121675542D01*
X238444519Y-122294590D02*
X238444519Y-122485066D01*
X238396900Y-122580304D01*
X238301661Y-122675542D01*
X238111185Y-122723161D01*
X237777852Y-122723161D01*
X237587376Y-122675542D01*
X237492138Y-122580304D01*
X237444519Y-122485066D01*
X237444519Y-122294590D01*
X237492138Y-122199352D01*
X237587376Y-122104114D01*
X237777852Y-122056495D01*
X238111185Y-122056495D01*
X238301661Y-122104114D01*
X238396900Y-122199352D01*
X238444519Y-122294590D01*
X237444519Y-123723161D02*
X237920709Y-123389828D01*
X237444519Y-123151733D02*
X238444519Y-123151733D01*
X238444519Y-123532685D01*
X238396900Y-123627923D01*
X238349280Y-123675542D01*
X238254042Y-123723161D01*
X238111185Y-123723161D01*
X238015947Y-123675542D01*
X237968328Y-123627923D01*
X237920709Y-123532685D01*
X237920709Y-123151733D01*
X237444519Y-125437447D02*
X237444519Y-124866019D01*
X237444519Y-125151733D02*
X238444519Y-125151733D01*
X238301661Y-125056495D01*
X238206423Y-124961257D01*
X238158804Y-124866019D01*
D11*
%TO.C,R2*%
X264322020Y-135509219D02*
X264322020Y-135183661D01*
X263302020Y-135509219D02*
X263302020Y-135183661D01*
%TO.C,D3*%
X262832680Y-133404360D02*
X262832680Y-138384360D01*
X260112680Y-133404360D02*
X260112680Y-138384360D01*
X262832680Y-133404360D02*
X260112680Y-133404360D01*
%TO.C,C6*%
X248867920Y-144986980D02*
X253077920Y-144986980D01*
X248867920Y-141966980D02*
X248867920Y-144986980D01*
X253077920Y-141966980D02*
X248867920Y-141966980D01*
%TO.C,U4*%
X228693740Y-104006340D02*
X230303740Y-104006340D01*
X228693740Y-104006340D02*
X228693740Y-106006340D01*
X228973740Y-116546340D02*
X228973740Y-104296340D01*
X234733740Y-116546340D02*
X228973740Y-116546340D01*
X234733740Y-104286340D02*
X234733740Y-116546340D01*
X228983740Y-104286340D02*
X234723740Y-104286340D01*
%TO.C,R5*%
X247635300Y-130748821D02*
X247635300Y-131074379D01*
X248655300Y-130748821D02*
X248655300Y-131074379D01*
%TO.C,D6*%
X247292800Y-132383900D02*
X247292800Y-130098900D01*
X245822800Y-132383900D02*
X247292800Y-132383900D01*
X245822800Y-130098900D02*
X245822800Y-132383900D01*
%TO.C,R13*%
X245417880Y-141607081D02*
X245417880Y-141932639D01*
X246437880Y-141607081D02*
X246437880Y-141932639D01*
%TO.C,R12*%
X248505440Y-141920179D02*
X248505440Y-141594621D01*
X247485440Y-141920179D02*
X247485440Y-141594621D01*
D10*
%TO.C,U2*%
X251023300Y-136413000D02*
X249623300Y-136413000D01*
X251023300Y-141513000D02*
X255173300Y-141513000D01*
X251023300Y-136363000D02*
X255173300Y-136363000D01*
X251023300Y-141513000D02*
X251023300Y-141368000D01*
X255173300Y-141513000D02*
X255173300Y-141368000D01*
X255173300Y-136363000D02*
X255173300Y-136508000D01*
X251023300Y-136363000D02*
X251023300Y-136413000D01*
D11*
%TO.C,SW2*%
X252040000Y-126864500D02*
X258500000Y-126864500D01*
X252040000Y-122334500D02*
X252040000Y-124934500D01*
X252040000Y-120404500D02*
X258500000Y-120404500D01*
X258500000Y-122334500D02*
X258500000Y-124934500D01*
X252040000Y-120434500D02*
X252040000Y-120404500D01*
X252040000Y-126864500D02*
X252040000Y-126834500D01*
X258500000Y-126864500D02*
X258500000Y-126834500D01*
X258500000Y-120404500D02*
X258500000Y-120434500D01*
%TO.C,R15*%
X235837000Y-137302021D02*
X235837000Y-137627579D01*
X236857000Y-137302021D02*
X236857000Y-137627579D01*
%TO.C,R14*%
X235925900Y-128386621D02*
X235925900Y-128712179D01*
X236945900Y-128386621D02*
X236945900Y-128712179D01*
%TO.C,R10*%
X235887800Y-119483921D02*
X235887800Y-119809479D01*
X236907800Y-119483921D02*
X236907800Y-119809479D01*
%TO.C,R4*%
X255905540Y-129588041D02*
X255905540Y-129913599D01*
X256925540Y-129588041D02*
X256925540Y-129913599D01*
%TO.C,R3*%
X265495500Y-118590279D02*
X265495500Y-118264721D01*
X264475500Y-118590279D02*
X264475500Y-118264721D01*
%TO.C,Q2*%
X259893340Y-131503540D02*
X258433340Y-131503540D01*
X259893340Y-128343540D02*
X257733340Y-128343540D01*
X259893340Y-128343540D02*
X259893340Y-129273540D01*
X259893340Y-131503540D02*
X259893340Y-130573540D01*
%TO.C,Q1*%
X261310000Y-142619000D02*
X261310000Y-141159000D01*
X264470000Y-142619000D02*
X264470000Y-140459000D01*
X264470000Y-142619000D02*
X263540000Y-142619000D01*
X261310000Y-142619000D02*
X262240000Y-142619000D01*
%TO.C,J9*%
X229779340Y-136352380D02*
X229179340Y-136352380D01*
X229779340Y-137952380D02*
X229779340Y-136352380D01*
X229179340Y-137952380D02*
X229779340Y-137952380D01*
X229779340Y-138892380D02*
X229179340Y-138892380D01*
X229779340Y-140492380D02*
X229779340Y-138892380D01*
X229179340Y-140492380D02*
X229779340Y-140492380D01*
X229779340Y-141432380D02*
X229179340Y-141432380D01*
X229779340Y-143032380D02*
X229779340Y-141432380D01*
X229179340Y-143032380D02*
X229779340Y-143032380D01*
X235199340Y-137402380D02*
X234199340Y-137402380D01*
X235199340Y-141982380D02*
X234199340Y-141982380D01*
X233669340Y-137402380D02*
X234199340Y-137152380D01*
X233669340Y-141982380D02*
X233669340Y-137402380D01*
X234199340Y-142232380D02*
X233669340Y-141982380D01*
X234199340Y-137152380D02*
X235199340Y-137152380D01*
X234199340Y-142232380D02*
X234199340Y-137152380D01*
X235199340Y-142232380D02*
X234199340Y-142232380D01*
X230209340Y-143902380D02*
X234209340Y-143902380D01*
X229179340Y-135772380D02*
X229179340Y-143612380D01*
X235199340Y-135772380D02*
X229179340Y-135772380D01*
X235199340Y-143612380D02*
X235199340Y-135772380D01*
X229179340Y-143612380D02*
X235199340Y-143612380D01*
%TO.C,J8*%
X229784420Y-127477620D02*
X229184420Y-127477620D01*
X229784420Y-129077620D02*
X229784420Y-127477620D01*
X229184420Y-129077620D02*
X229784420Y-129077620D01*
X229784420Y-130017620D02*
X229184420Y-130017620D01*
X229784420Y-131617620D02*
X229784420Y-130017620D01*
X229184420Y-131617620D02*
X229784420Y-131617620D01*
X229784420Y-132557620D02*
X229184420Y-132557620D01*
X229784420Y-134157620D02*
X229784420Y-132557620D01*
X229184420Y-134157620D02*
X229784420Y-134157620D01*
X235204420Y-128527620D02*
X234204420Y-128527620D01*
X235204420Y-133107620D02*
X234204420Y-133107620D01*
X233674420Y-128527620D02*
X234204420Y-128277620D01*
X233674420Y-133107620D02*
X233674420Y-128527620D01*
X234204420Y-133357620D02*
X233674420Y-133107620D01*
X234204420Y-128277620D02*
X235204420Y-128277620D01*
X234204420Y-133357620D02*
X234204420Y-128277620D01*
X235204420Y-133357620D02*
X234204420Y-133357620D01*
X230214420Y-135027620D02*
X234214420Y-135027620D01*
X229184420Y-126897620D02*
X229184420Y-134737620D01*
X235204420Y-126897620D02*
X229184420Y-126897620D01*
X235204420Y-134737620D02*
X235204420Y-126897620D01*
X229184420Y-134737620D02*
X235204420Y-134737620D01*
%TO.C,J4*%
X229789500Y-118546980D02*
X229189500Y-118546980D01*
X229789500Y-120146980D02*
X229789500Y-118546980D01*
X229189500Y-120146980D02*
X229789500Y-120146980D01*
X229789500Y-121086980D02*
X229189500Y-121086980D01*
X229789500Y-122686980D02*
X229789500Y-121086980D01*
X229189500Y-122686980D02*
X229789500Y-122686980D01*
X229789500Y-123626980D02*
X229189500Y-123626980D01*
X229789500Y-125226980D02*
X229789500Y-123626980D01*
X229189500Y-125226980D02*
X229789500Y-125226980D01*
X235209500Y-119596980D02*
X234209500Y-119596980D01*
X235209500Y-124176980D02*
X234209500Y-124176980D01*
X233679500Y-119596980D02*
X234209500Y-119346980D01*
X233679500Y-124176980D02*
X233679500Y-119596980D01*
X234209500Y-124426980D02*
X233679500Y-124176980D01*
X234209500Y-119346980D02*
X235209500Y-119346980D01*
X234209500Y-124426980D02*
X234209500Y-119346980D01*
X235209500Y-124426980D02*
X234209500Y-124426980D01*
X230219500Y-126096980D02*
X234219500Y-126096980D01*
X229189500Y-117966980D02*
X229189500Y-125806980D01*
X235209500Y-117966980D02*
X229189500Y-117966980D01*
X235209500Y-125806980D02*
X235209500Y-117966980D01*
X229189500Y-125806980D02*
X235209500Y-125806980D01*
%TO.C,J3*%
X270463500Y-129641500D02*
X271063500Y-129641500D01*
X270463500Y-128041500D02*
X270463500Y-129641500D01*
X271063500Y-128041500D02*
X270463500Y-128041500D01*
X270463500Y-127101500D02*
X271063500Y-127101500D01*
X270463500Y-125501500D02*
X270463500Y-127101500D01*
X271063500Y-125501500D02*
X270463500Y-125501500D01*
X265043500Y-128591500D02*
X266043500Y-128591500D01*
X265043500Y-126551500D02*
X266043500Y-126551500D01*
X266573500Y-128591500D02*
X266043500Y-128841500D01*
X266573500Y-126551500D02*
X266573500Y-128591500D01*
X266043500Y-126301500D02*
X266573500Y-126551500D01*
X266043500Y-128841500D02*
X265043500Y-128841500D01*
X266043500Y-126301500D02*
X266043500Y-128841500D01*
X265043500Y-126301500D02*
X266043500Y-126301500D01*
X270033500Y-124631500D02*
X266033500Y-124631500D01*
X271063500Y-130221500D02*
X271063500Y-124921500D01*
X265043500Y-130221500D02*
X271063500Y-130221500D01*
X265043500Y-124921500D02*
X265043500Y-130221500D01*
X271063500Y-124921500D02*
X265043500Y-124921500D01*
%TO.C,J2*%
X264862000Y-103127500D02*
X266192000Y-103127500D01*
X264862000Y-104457500D02*
X264862000Y-103127500D01*
X264862000Y-105727500D02*
X267522000Y-105727500D01*
X267522000Y-105727500D02*
X267522000Y-110867500D01*
X264862000Y-105727500D02*
X264862000Y-110867500D01*
X264862000Y-110867500D02*
X267522000Y-110867500D01*
%TO.C,F1*%
X267113936Y-142083200D02*
X268318064Y-142083200D01*
X267113936Y-140263200D02*
X268318064Y-140263200D01*
%TO.C,D5*%
X261087600Y-131479500D02*
X261087600Y-126079500D01*
X264387600Y-131479500D02*
X264387600Y-126079500D01*
X261087600Y-131479500D02*
X264387600Y-131479500D01*
%TO.C,C10*%
X235824300Y-140350021D02*
X235824300Y-140675579D01*
X236844300Y-140350021D02*
X236844300Y-140675579D01*
%TO.C,C9*%
X235925900Y-131421921D02*
X235925900Y-131747479D01*
X236945900Y-131421921D02*
X236945900Y-131747479D01*
%TO.C,C8*%
X235900500Y-122519221D02*
X235900500Y-122844779D01*
X236920500Y-122519221D02*
X236920500Y-122844779D01*
%TO.C,C7*%
X265495500Y-115478779D02*
X265495500Y-115153221D01*
X264475500Y-115478779D02*
X264475500Y-115153221D01*
%TO.C,D4*%
X257069800Y-135939800D02*
X251669800Y-135939800D01*
X257069800Y-132639800D02*
X251669800Y-132639800D01*
X257069800Y-135939800D02*
X257069800Y-132639800D01*
%TO.C,L1*%
X245863040Y-136149582D02*
X245863040Y-136666738D01*
X247283040Y-136149582D02*
X247283040Y-136666738D01*
%TO.C,U1*%
X245205120Y-99952800D02*
X244825120Y-99952800D01*
X245205120Y-93532800D02*
X245205120Y-99952800D01*
X263445120Y-93532800D02*
X263445120Y-99952800D01*
X245205120Y-93532800D02*
X263445120Y-93532800D01*
X263445120Y-119277800D02*
X262445120Y-119277800D01*
X263445120Y-118497800D02*
X263445120Y-119277800D01*
X245205120Y-119277800D02*
X246205120Y-119277800D01*
X245205120Y-118497800D02*
X245205120Y-119277800D01*
%TO.C,SW1*%
X234981360Y-105946820D02*
X234981360Y-112406820D01*
X239511360Y-105946820D02*
X236911360Y-105946820D01*
X241441360Y-105946820D02*
X241441360Y-112406820D01*
X239511360Y-112406820D02*
X236911360Y-112406820D01*
X241411360Y-105946820D02*
X241441360Y-105946820D01*
X234981360Y-105946820D02*
X235011360Y-105946820D01*
X234981360Y-112406820D02*
X235011360Y-112406820D01*
X241441360Y-112406820D02*
X241411360Y-112406820D01*
%TO.C,R11*%
X247952800Y-124627421D02*
X247952800Y-124952979D01*
X248972800Y-124627421D02*
X248972800Y-124952979D01*
%TO.C,R9*%
X242846641Y-104716040D02*
X243172199Y-104716040D01*
X242846641Y-103696040D02*
X243172199Y-103696040D01*
%TO.C,R7*%
X268962921Y-112701800D02*
X269288479Y-112701800D01*
X268962921Y-111681800D02*
X269288479Y-111681800D01*
%TO.C,R6*%
X269001021Y-117553200D02*
X269326579Y-117553200D01*
X269001021Y-116533200D02*
X269326579Y-116533200D01*
%TO.C,R1*%
X244134100Y-110043179D02*
X244134100Y-109717621D01*
X243114100Y-110043179D02*
X243114100Y-109717621D01*
%TO.C,Q3*%
X246393037Y-124244370D02*
G75*
G02X246393200Y-126326461I-1079837J-1041130D01*
G01*
X244233363Y-124244370D02*
G75*
G03X244233200Y-126326461I1079837J-1041130D01*
G01*
X246391808Y-123613165D02*
G75*
G02X246548716Y-126845500I-1078608J-1672335D01*
G01*
X244234592Y-123613165D02*
G75*
G03X244077684Y-126845500I1078608J-1672335D01*
G01*
X246393200Y-126845500D02*
X246549200Y-126845500D01*
X244077200Y-126845500D02*
X244233200Y-126845500D01*
%TO.C,J1*%
X270463500Y-138849000D02*
X271063500Y-138849000D01*
X270463500Y-137249000D02*
X270463500Y-138849000D01*
X271063500Y-137249000D02*
X270463500Y-137249000D01*
X270463500Y-136309000D02*
X271063500Y-136309000D01*
X270463500Y-134709000D02*
X270463500Y-136309000D01*
X271063500Y-134709000D02*
X270463500Y-134709000D01*
X265043500Y-137799000D02*
X266043500Y-137799000D01*
X265043500Y-135759000D02*
X266043500Y-135759000D01*
X266573500Y-137799000D02*
X266043500Y-138049000D01*
X266573500Y-135759000D02*
X266573500Y-137799000D01*
X266043500Y-135509000D02*
X266573500Y-135759000D01*
X266043500Y-138049000D02*
X265043500Y-138049000D01*
X266043500Y-135509000D02*
X266043500Y-138049000D01*
X265043500Y-135509000D02*
X266043500Y-135509000D01*
X270033500Y-133839000D02*
X266033500Y-133839000D01*
X271063500Y-139429000D02*
X271063500Y-134129000D01*
X265043500Y-139429000D02*
X271063500Y-139429000D01*
X265043500Y-134129000D02*
X265043500Y-139429000D01*
X271063500Y-134129000D02*
X265043500Y-134129000D01*
%TO.C,D2*%
X270610700Y-113031600D02*
X268325700Y-113031600D01*
X270610700Y-114501600D02*
X270610700Y-113031600D01*
X268325700Y-114501600D02*
X270610700Y-114501600D01*
%TO.C,D1*%
X270598000Y-114669900D02*
X268313000Y-114669900D01*
X270598000Y-116139900D02*
X270598000Y-114669900D01*
X268313000Y-116139900D02*
X270598000Y-116139900D01*
%TO.C,C20*%
X242846641Y-106252740D02*
X243172199Y-106252740D01*
X242846641Y-105232740D02*
X243172199Y-105232740D01*
%TO.C,C5*%
X243101400Y-112765621D02*
X243101400Y-113091179D01*
X244121400Y-112765621D02*
X244121400Y-113091179D01*
%TO.C,C4*%
X248054400Y-136072661D02*
X248054400Y-136398219D01*
X249074400Y-136072661D02*
X249074400Y-136398219D01*
%TO.C,C3*%
X257175540Y-138709181D02*
X257175540Y-139034739D01*
X258195540Y-138709181D02*
X258195540Y-139034739D01*
%TO.C,C2*%
X244223000Y-102042179D02*
X244223000Y-101716621D01*
X243203000Y-102042179D02*
X243203000Y-101716621D01*
%TO.C,C1*%
X242635500Y-102042179D02*
X242635500Y-101716621D01*
X241615500Y-102042179D02*
X241615500Y-101716621D01*
%TD*%
M02*
