M48
; DRILL file {KiCad 5.1.5+dfsg1-2build2} date Sun 17 Jul 2022 21:36:17
; FORMAT={-:-/ absolute / metric / decimal}
; #@! TF.CreationDate,2022-07-17T21:36:17+12:00
; #@! TF.GenerationSoftware,Kicad,Pcbnew,5.1.5+dfsg1-2build2
FMAT,2
METRIC
T1C0.300
T2C0.400
T3C0.800
T4C0.900
T5C1.000
T6C1.200
T7C2.200
%
G90
G05
T1
X252.498Y-137.138
X252.498Y-138.338
X252.498Y-139.638
X252.498Y-140.738
X253.698Y-137.138
X253.698Y-138.338
X253.698Y-139.638
X253.698Y-140.738
T2
X235.908Y-103.65
X235.923Y-114.643
X236.36Y-142.507
X236.41Y-124.676
X236.449Y-133.528
X240.863Y-103.607
X240.868Y-102.705
X241.871Y-111.557
X242.227Y-113.703
X243.812Y-106.929
X244.475Y-142.697
X244.869Y-137.401
X245.25Y-129.946
X245.656Y-138.697
X245.694Y-143.954
X246.596Y-138.697
X247.244Y-119.418
X247.447Y-143.688
X247.472Y-101.079
X247.523Y-138.697
X248.379Y-143.701
X248.384Y-144.516
X248.399Y-126.822
X248.602Y-116.776
X249.428Y-130.175
X249.588Y-133.279
X249.601Y-134.234
X251.206Y-124.409
X251.219Y-127.483
X251.727Y-109.944
X251.841Y-107.061
X251.841Y-108.445
X253.378Y-108.318
X253.416Y-107.023
X253.441Y-109.931
X254.297Y-142.71
X254.305Y-143.546
X254.31Y-144.465
X254.965Y-108.267
X255.003Y-107.023
X255.054Y-109.855
X257.617Y-140.932
X259.258Y-127.394
X259.334Y-124.333
X261.036Y-101.028
X261.607Y-123.952
X262.611Y-123.927
X263.576Y-123.914
X263.825Y-133.327
X264.516Y-101.054
X264.973Y-120.358
X266.23Y-115.296
X266.255Y-119.266
X268.326Y-118.339
X268.63Y-110.973
T3
X231.854Y-106.606
X231.854Y-109.146
X231.854Y-111.686
X231.854Y-114.226
T4
X245.313Y-124.015
X245.313Y-126.555
T5
X266.192Y-104.457
X266.192Y-106.997
X266.192Y-109.537
T6
X268.034Y-126.301
X268.034Y-128.841
X232.214Y-128.278
X232.214Y-130.818
X232.214Y-133.358
X232.209Y-137.152
X232.209Y-139.692
X232.209Y-142.232
X232.219Y-119.347
X232.219Y-121.887
X232.219Y-124.427
X268.034Y-135.509
X268.034Y-138.049
T7
X242.512Y-139.85
X268.326Y-121.971
T0
M30
