%TF.GenerationSoftware,KiCad,Pcbnew,5.1.5+dfsg1-2build2*%
%TF.CreationDate,2022-07-17T21:36:19+12:00*%
%TF.ProjectId,automatic-plant-watering,6175746f-6d61-4746-9963-2d706c616e74,rev?*%
%TF.SameCoordinates,Original*%
%TF.FileFunction,Copper,L2,Inr*%
%TF.FilePolarity,Positive*%
%FSLAX46Y46*%
G04 Gerber Fmt 4.6, Leading zero omitted, Abs format (unit mm)*
G04 Created by KiCad (PCBNEW 5.1.5+dfsg1-2build2) date 2022-07-17 21:36:19*
%MOMM*%
%LPD*%
G04 APERTURE LIST*
%TA.AperFunction,ViaPad*%
%ADD10C,1.500000*%
%TD*%
%TA.AperFunction,ViaPad*%
%ADD11R,1.500000X1.500000*%
%TD*%
%TA.AperFunction,ViaPad*%
%ADD12C,0.600000*%
%TD*%
%TA.AperFunction,ViaPad*%
%ADD13O,2.200000X1.740000*%
%TD*%
%TA.AperFunction,ViaPad*%
%ADD14C,0.100000*%
%TD*%
%TA.AperFunction,ViaPad*%
%ADD15O,1.700000X1.700000*%
%TD*%
%TA.AperFunction,ViaPad*%
%ADD16R,1.700000X1.700000*%
%TD*%
%TA.AperFunction,ViaPad*%
%ADD17C,1.800000*%
%TD*%
%TA.AperFunction,ViaPad*%
%ADD18R,1.800000X1.800000*%
%TD*%
%TA.AperFunction,ViaPad*%
%ADD19C,0.800000*%
%TD*%
%TA.AperFunction,Conductor*%
%ADD20C,0.254000*%
%TD*%
G04 APERTURE END LIST*
D10*
%TO.N,GND*%
%TO.C,U4*%
X231853740Y-114226340D03*
%TO.N,Net-(U4-Pad3)*%
X231853740Y-111686340D03*
%TO.N,TEMP_HUMID_SEN*%
X231853740Y-109146340D03*
D11*
%TO.N,+3V3*%
X231853740Y-106606340D03*
%TD*%
D12*
%TO.N,GND*%
%TO.C,U2*%
X253698300Y-140738000D03*
X253698300Y-139638000D03*
X252498300Y-139638000D03*
X252498300Y-140738000D03*
X253698300Y-137138000D03*
X253698300Y-138338000D03*
X252498300Y-138338000D03*
X252498300Y-137138000D03*
%TD*%
D13*
%TO.N,GND*%
%TO.C,J9*%
X232209340Y-137152380D03*
%TO.N,Net-(C10-Pad1)*%
X232209340Y-139692380D03*
%TA.AperFunction,ViaPad*%
D14*
%TO.N,+3V3*%
G36*
X233083845Y-141363584D02*
G01*
X233108113Y-141367184D01*
X233131912Y-141373145D01*
X233155011Y-141381410D01*
X233177190Y-141391900D01*
X233198233Y-141404512D01*
X233217939Y-141419127D01*
X233236117Y-141435603D01*
X233252593Y-141453781D01*
X233267208Y-141473487D01*
X233279820Y-141494530D01*
X233290310Y-141516709D01*
X233298575Y-141539808D01*
X233304536Y-141563607D01*
X233308136Y-141587875D01*
X233309340Y-141612379D01*
X233309340Y-142852381D01*
X233308136Y-142876885D01*
X233304536Y-142901153D01*
X233298575Y-142924952D01*
X233290310Y-142948051D01*
X233279820Y-142970230D01*
X233267208Y-142991273D01*
X233252593Y-143010979D01*
X233236117Y-143029157D01*
X233217939Y-143045633D01*
X233198233Y-143060248D01*
X233177190Y-143072860D01*
X233155011Y-143083350D01*
X233131912Y-143091615D01*
X233108113Y-143097576D01*
X233083845Y-143101176D01*
X233059341Y-143102380D01*
X231359339Y-143102380D01*
X231334835Y-143101176D01*
X231310567Y-143097576D01*
X231286768Y-143091615D01*
X231263669Y-143083350D01*
X231241490Y-143072860D01*
X231220447Y-143060248D01*
X231200741Y-143045633D01*
X231182563Y-143029157D01*
X231166087Y-143010979D01*
X231151472Y-142991273D01*
X231138860Y-142970230D01*
X231128370Y-142948051D01*
X231120105Y-142924952D01*
X231114144Y-142901153D01*
X231110544Y-142876885D01*
X231109340Y-142852381D01*
X231109340Y-141612379D01*
X231110544Y-141587875D01*
X231114144Y-141563607D01*
X231120105Y-141539808D01*
X231128370Y-141516709D01*
X231138860Y-141494530D01*
X231151472Y-141473487D01*
X231166087Y-141453781D01*
X231182563Y-141435603D01*
X231200741Y-141419127D01*
X231220447Y-141404512D01*
X231241490Y-141391900D01*
X231263669Y-141381410D01*
X231286768Y-141373145D01*
X231310567Y-141367184D01*
X231334835Y-141363584D01*
X231359339Y-141362380D01*
X233059341Y-141362380D01*
X233083845Y-141363584D01*
G37*
%TD.AperFunction*%
%TD*%
D13*
%TO.N,GND*%
%TO.C,J8*%
X232214420Y-128277620D03*
%TO.N,Net-(C9-Pad1)*%
X232214420Y-130817620D03*
%TA.AperFunction,ViaPad*%
D14*
%TO.N,+3V3*%
G36*
X233088925Y-132488824D02*
G01*
X233113193Y-132492424D01*
X233136992Y-132498385D01*
X233160091Y-132506650D01*
X233182270Y-132517140D01*
X233203313Y-132529752D01*
X233223019Y-132544367D01*
X233241197Y-132560843D01*
X233257673Y-132579021D01*
X233272288Y-132598727D01*
X233284900Y-132619770D01*
X233295390Y-132641949D01*
X233303655Y-132665048D01*
X233309616Y-132688847D01*
X233313216Y-132713115D01*
X233314420Y-132737619D01*
X233314420Y-133977621D01*
X233313216Y-134002125D01*
X233309616Y-134026393D01*
X233303655Y-134050192D01*
X233295390Y-134073291D01*
X233284900Y-134095470D01*
X233272288Y-134116513D01*
X233257673Y-134136219D01*
X233241197Y-134154397D01*
X233223019Y-134170873D01*
X233203313Y-134185488D01*
X233182270Y-134198100D01*
X233160091Y-134208590D01*
X233136992Y-134216855D01*
X233113193Y-134222816D01*
X233088925Y-134226416D01*
X233064421Y-134227620D01*
X231364419Y-134227620D01*
X231339915Y-134226416D01*
X231315647Y-134222816D01*
X231291848Y-134216855D01*
X231268749Y-134208590D01*
X231246570Y-134198100D01*
X231225527Y-134185488D01*
X231205821Y-134170873D01*
X231187643Y-134154397D01*
X231171167Y-134136219D01*
X231156552Y-134116513D01*
X231143940Y-134095470D01*
X231133450Y-134073291D01*
X231125185Y-134050192D01*
X231119224Y-134026393D01*
X231115624Y-134002125D01*
X231114420Y-133977621D01*
X231114420Y-132737619D01*
X231115624Y-132713115D01*
X231119224Y-132688847D01*
X231125185Y-132665048D01*
X231133450Y-132641949D01*
X231143940Y-132619770D01*
X231156552Y-132598727D01*
X231171167Y-132579021D01*
X231187643Y-132560843D01*
X231205821Y-132544367D01*
X231225527Y-132529752D01*
X231246570Y-132517140D01*
X231268749Y-132506650D01*
X231291848Y-132498385D01*
X231315647Y-132492424D01*
X231339915Y-132488824D01*
X231364419Y-132487620D01*
X233064421Y-132487620D01*
X233088925Y-132488824D01*
G37*
%TD.AperFunction*%
%TD*%
D13*
%TO.N,GND*%
%TO.C,J4*%
X232219500Y-119346980D03*
%TO.N,Net-(C8-Pad1)*%
X232219500Y-121886980D03*
%TA.AperFunction,ViaPad*%
D14*
%TO.N,+3V3*%
G36*
X233094005Y-123558184D02*
G01*
X233118273Y-123561784D01*
X233142072Y-123567745D01*
X233165171Y-123576010D01*
X233187350Y-123586500D01*
X233208393Y-123599112D01*
X233228099Y-123613727D01*
X233246277Y-123630203D01*
X233262753Y-123648381D01*
X233277368Y-123668087D01*
X233289980Y-123689130D01*
X233300470Y-123711309D01*
X233308735Y-123734408D01*
X233314696Y-123758207D01*
X233318296Y-123782475D01*
X233319500Y-123806979D01*
X233319500Y-125046981D01*
X233318296Y-125071485D01*
X233314696Y-125095753D01*
X233308735Y-125119552D01*
X233300470Y-125142651D01*
X233289980Y-125164830D01*
X233277368Y-125185873D01*
X233262753Y-125205579D01*
X233246277Y-125223757D01*
X233228099Y-125240233D01*
X233208393Y-125254848D01*
X233187350Y-125267460D01*
X233165171Y-125277950D01*
X233142072Y-125286215D01*
X233118273Y-125292176D01*
X233094005Y-125295776D01*
X233069501Y-125296980D01*
X231369499Y-125296980D01*
X231344995Y-125295776D01*
X231320727Y-125292176D01*
X231296928Y-125286215D01*
X231273829Y-125277950D01*
X231251650Y-125267460D01*
X231230607Y-125254848D01*
X231210901Y-125240233D01*
X231192723Y-125223757D01*
X231176247Y-125205579D01*
X231161632Y-125185873D01*
X231149020Y-125164830D01*
X231138530Y-125142651D01*
X231130265Y-125119552D01*
X231124304Y-125095753D01*
X231120704Y-125071485D01*
X231119500Y-125046981D01*
X231119500Y-123806979D01*
X231120704Y-123782475D01*
X231124304Y-123758207D01*
X231130265Y-123734408D01*
X231138530Y-123711309D01*
X231149020Y-123689130D01*
X231161632Y-123668087D01*
X231176247Y-123648381D01*
X231192723Y-123630203D01*
X231210901Y-123613727D01*
X231230607Y-123599112D01*
X231251650Y-123586500D01*
X231273829Y-123576010D01*
X231296928Y-123567745D01*
X231320727Y-123561784D01*
X231344995Y-123558184D01*
X231369499Y-123556980D01*
X233069501Y-123556980D01*
X233094005Y-123558184D01*
G37*
%TD.AperFunction*%
%TD*%
D13*
%TO.N,Net-(D5-Pad1)*%
%TO.C,J3*%
X268033500Y-128841500D03*
%TA.AperFunction,ViaPad*%
D14*
%TO.N,GND*%
G36*
X268908005Y-125432704D02*
G01*
X268932273Y-125436304D01*
X268956072Y-125442265D01*
X268979171Y-125450530D01*
X269001350Y-125461020D01*
X269022393Y-125473632D01*
X269042099Y-125488247D01*
X269060277Y-125504723D01*
X269076753Y-125522901D01*
X269091368Y-125542607D01*
X269103980Y-125563650D01*
X269114470Y-125585829D01*
X269122735Y-125608928D01*
X269128696Y-125632727D01*
X269132296Y-125656995D01*
X269133500Y-125681499D01*
X269133500Y-126921501D01*
X269132296Y-126946005D01*
X269128696Y-126970273D01*
X269122735Y-126994072D01*
X269114470Y-127017171D01*
X269103980Y-127039350D01*
X269091368Y-127060393D01*
X269076753Y-127080099D01*
X269060277Y-127098277D01*
X269042099Y-127114753D01*
X269022393Y-127129368D01*
X269001350Y-127141980D01*
X268979171Y-127152470D01*
X268956072Y-127160735D01*
X268932273Y-127166696D01*
X268908005Y-127170296D01*
X268883501Y-127171500D01*
X267183499Y-127171500D01*
X267158995Y-127170296D01*
X267134727Y-127166696D01*
X267110928Y-127160735D01*
X267087829Y-127152470D01*
X267065650Y-127141980D01*
X267044607Y-127129368D01*
X267024901Y-127114753D01*
X267006723Y-127098277D01*
X266990247Y-127080099D01*
X266975632Y-127060393D01*
X266963020Y-127039350D01*
X266952530Y-127017171D01*
X266944265Y-126994072D01*
X266938304Y-126970273D01*
X266934704Y-126946005D01*
X266933500Y-126921501D01*
X266933500Y-125681499D01*
X266934704Y-125656995D01*
X266938304Y-125632727D01*
X266944265Y-125608928D01*
X266952530Y-125585829D01*
X266963020Y-125563650D01*
X266975632Y-125542607D01*
X266990247Y-125522901D01*
X267006723Y-125504723D01*
X267024901Y-125488247D01*
X267044607Y-125473632D01*
X267065650Y-125461020D01*
X267087829Y-125450530D01*
X267110928Y-125442265D01*
X267134727Y-125436304D01*
X267158995Y-125432704D01*
X267183499Y-125431500D01*
X268883501Y-125431500D01*
X268908005Y-125432704D01*
G37*
%TD.AperFunction*%
%TD*%
D15*
%TO.N,GND*%
%TO.C,J2*%
X266192000Y-109537500D03*
%TO.N,TX_PROG*%
X266192000Y-106997500D03*
D16*
%TO.N,RX_PROG*%
X266192000Y-104457500D03*
%TD*%
D17*
%TO.N,LIGHT_SENSOR*%
%TO.C,Q3*%
X245313200Y-124015500D03*
D18*
%TO.N,+3V3*%
X245313200Y-126555500D03*
%TD*%
D13*
%TO.N,Net-(F1-Pad2)*%
%TO.C,J1*%
X268033500Y-138049000D03*
%TA.AperFunction,ViaPad*%
D14*
%TO.N,GND*%
G36*
X268908005Y-134640204D02*
G01*
X268932273Y-134643804D01*
X268956072Y-134649765D01*
X268979171Y-134658030D01*
X269001350Y-134668520D01*
X269022393Y-134681132D01*
X269042099Y-134695747D01*
X269060277Y-134712223D01*
X269076753Y-134730401D01*
X269091368Y-134750107D01*
X269103980Y-134771150D01*
X269114470Y-134793329D01*
X269122735Y-134816428D01*
X269128696Y-134840227D01*
X269132296Y-134864495D01*
X269133500Y-134888999D01*
X269133500Y-136129001D01*
X269132296Y-136153505D01*
X269128696Y-136177773D01*
X269122735Y-136201572D01*
X269114470Y-136224671D01*
X269103980Y-136246850D01*
X269091368Y-136267893D01*
X269076753Y-136287599D01*
X269060277Y-136305777D01*
X269042099Y-136322253D01*
X269022393Y-136336868D01*
X269001350Y-136349480D01*
X268979171Y-136359970D01*
X268956072Y-136368235D01*
X268932273Y-136374196D01*
X268908005Y-136377796D01*
X268883501Y-136379000D01*
X267183499Y-136379000D01*
X267158995Y-136377796D01*
X267134727Y-136374196D01*
X267110928Y-136368235D01*
X267087829Y-136359970D01*
X267065650Y-136349480D01*
X267044607Y-136336868D01*
X267024901Y-136322253D01*
X267006723Y-136305777D01*
X266990247Y-136287599D01*
X266975632Y-136267893D01*
X266963020Y-136246850D01*
X266952530Y-136224671D01*
X266944265Y-136201572D01*
X266938304Y-136177773D01*
X266934704Y-136153505D01*
X266933500Y-136129001D01*
X266933500Y-134888999D01*
X266934704Y-134864495D01*
X266938304Y-134840227D01*
X266944265Y-134816428D01*
X266952530Y-134793329D01*
X266963020Y-134771150D01*
X266975632Y-134750107D01*
X266990247Y-134730401D01*
X267006723Y-134712223D01*
X267024901Y-134695747D01*
X267044607Y-134681132D01*
X267065650Y-134668520D01*
X267087829Y-134658030D01*
X267110928Y-134649765D01*
X267134727Y-134643804D01*
X267158995Y-134640204D01*
X267183499Y-134639000D01*
X268883501Y-134639000D01*
X268908005Y-134640204D01*
G37*
%TD.AperFunction*%
%TD*%
D19*
%TO.N,GND*%
X257616960Y-140931900D03*
X254297180Y-142709900D03*
X254304800Y-143545560D03*
X254309880Y-144465040D03*
X243812060Y-106928920D03*
X235907580Y-103649780D03*
X235922820Y-114642900D03*
X236359700Y-142506700D03*
X236448600Y-133527800D03*
X236410500Y-124675900D03*
X248399300Y-126822200D03*
X268630400Y-110972600D03*
X268325600Y-118338600D03*
X248602500Y-116776500D03*
X247243600Y-119418100D03*
X242227100Y-113703100D03*
X251206000Y-124409200D03*
X251218700Y-127482600D03*
X247472200Y-101079300D03*
X255054100Y-109855000D03*
X254965200Y-108267500D03*
X255003300Y-107022900D03*
X253415800Y-107022900D03*
X253377700Y-108318300D03*
X253441200Y-109931200D03*
X251726700Y-109943900D03*
X251841000Y-108445300D03*
X251841000Y-107061000D03*
X266230100Y-115295680D03*
X261607300Y-123952000D03*
X262610600Y-123926600D03*
X263575800Y-123913900D03*
X259257800Y-127393700D03*
X259334000Y-124333000D03*
X261035800Y-101028500D03*
X264515600Y-101053900D03*
X263824720Y-133327140D03*
X249588020Y-133278880D03*
X249600720Y-134233920D03*
X244475000Y-142697200D03*
X245694200Y-143954500D03*
X249428000Y-130175000D03*
%TO.N,+3V3*%
X240863120Y-103606600D03*
X241871500Y-111556800D03*
X240868200Y-102704900D03*
X266255500Y-119265700D03*
X264972800Y-120357900D03*
X245249700Y-129946400D03*
X247523000Y-138696700D03*
X246595900Y-138696700D03*
X245656100Y-138696700D03*
X244868700Y-137401300D03*
X247446800Y-143687800D03*
X248378980Y-143700500D03*
X248384060Y-144515840D03*
%TD*%
D20*
%TO.N,GND*%
G36*
X261616428Y-100481998D02*
G01*
X266400323Y-100531686D01*
X267192687Y-100604494D01*
X267925965Y-100811300D01*
X268609276Y-101148272D01*
X269219737Y-101604125D01*
X269736902Y-102163590D01*
X270143456Y-102807940D01*
X270425778Y-103515584D01*
X270576958Y-104275617D01*
X270600008Y-104715450D01*
X270615987Y-141888285D01*
X270543506Y-142677087D01*
X270336701Y-143410364D01*
X269999728Y-144093676D01*
X269543873Y-144704139D01*
X268984407Y-145221304D01*
X268340060Y-145627857D01*
X267632418Y-145910177D01*
X266872384Y-146061358D01*
X266435024Y-146084279D01*
X261653546Y-146050621D01*
X261650028Y-146050287D01*
X261621056Y-146050392D01*
X261592228Y-146050189D01*
X261588726Y-146050509D01*
X233594701Y-146151891D01*
X232806948Y-146079506D01*
X232073671Y-145872701D01*
X231390359Y-145535728D01*
X230779896Y-145079873D01*
X230262731Y-144520407D01*
X229856178Y-143876060D01*
X229573858Y-143168418D01*
X229422677Y-142408384D01*
X229399635Y-141968709D01*
X229399635Y-139692380D01*
X230467058Y-139692380D01*
X230496116Y-139987412D01*
X230582174Y-140271105D01*
X230721923Y-140532559D01*
X230909995Y-140761725D01*
X230975454Y-140815446D01*
X230865953Y-140873975D01*
X230731378Y-140984418D01*
X230620935Y-141118993D01*
X230538868Y-141272529D01*
X230488332Y-141439125D01*
X230471268Y-141612379D01*
X230471268Y-142852381D01*
X230488332Y-143025635D01*
X230538868Y-143192231D01*
X230620935Y-143345767D01*
X230731378Y-143480342D01*
X230865953Y-143590785D01*
X231019489Y-143672852D01*
X231186085Y-143723388D01*
X231359339Y-143740452D01*
X233059341Y-143740452D01*
X233232595Y-143723388D01*
X233399191Y-143672852D01*
X233552727Y-143590785D01*
X233558726Y-143585861D01*
X246411800Y-143585861D01*
X246411800Y-143789739D01*
X246451574Y-143989698D01*
X246529595Y-144178056D01*
X246642863Y-144347574D01*
X246787026Y-144491737D01*
X246956544Y-144605005D01*
X247144902Y-144683026D01*
X247344861Y-144722800D01*
X247369950Y-144722800D01*
X247388834Y-144817738D01*
X247466855Y-145006096D01*
X247580123Y-145175614D01*
X247724286Y-145319777D01*
X247893804Y-145433045D01*
X248082162Y-145511066D01*
X248282121Y-145550840D01*
X248485999Y-145550840D01*
X248685958Y-145511066D01*
X248874316Y-145433045D01*
X249043834Y-145319777D01*
X249187997Y-145175614D01*
X249301265Y-145006096D01*
X249379286Y-144817738D01*
X249419060Y-144617779D01*
X249419060Y-144413901D01*
X249379286Y-144213942D01*
X249332933Y-144102038D01*
X249374206Y-144002398D01*
X249413980Y-143802439D01*
X249413980Y-143598561D01*
X249374206Y-143398602D01*
X249296185Y-143210244D01*
X249182917Y-143040726D01*
X249038754Y-142896563D01*
X248869236Y-142783295D01*
X248680878Y-142705274D01*
X248480919Y-142665500D01*
X248277041Y-142665500D01*
X248077082Y-142705274D01*
X247928220Y-142766935D01*
X247748698Y-142692574D01*
X247548739Y-142652800D01*
X247344861Y-142652800D01*
X247144902Y-142692574D01*
X246956544Y-142770595D01*
X246787026Y-142883863D01*
X246642863Y-143028026D01*
X246529595Y-143197544D01*
X246451574Y-143385902D01*
X246411800Y-143585861D01*
X233558726Y-143585861D01*
X233687302Y-143480342D01*
X233797745Y-143345767D01*
X233879812Y-143192231D01*
X233930348Y-143025635D01*
X233947412Y-142852381D01*
X233947412Y-141612379D01*
X233930348Y-141439125D01*
X233879812Y-141272529D01*
X233797745Y-141118993D01*
X233687302Y-140984418D01*
X233552727Y-140873975D01*
X233443226Y-140815446D01*
X233508685Y-140761725D01*
X233696757Y-140532559D01*
X233836506Y-140271105D01*
X233922564Y-139987412D01*
X233951622Y-139692380D01*
X233950302Y-139678977D01*
X240776580Y-139678977D01*
X240776580Y-140020743D01*
X240843255Y-140355941D01*
X240974043Y-140671691D01*
X241163917Y-140955858D01*
X241405582Y-141197523D01*
X241689749Y-141387397D01*
X242005499Y-141518185D01*
X242340697Y-141584860D01*
X242682463Y-141584860D01*
X243017661Y-141518185D01*
X243333411Y-141387397D01*
X243355644Y-141372541D01*
X252043364Y-141372541D01*
X252053875Y-141565763D01*
X252223903Y-141636562D01*
X252404476Y-141672828D01*
X252588655Y-141673171D01*
X252769361Y-141637574D01*
X252939651Y-141567408D01*
X252942725Y-141565763D01*
X252953236Y-141372541D01*
X253243364Y-141372541D01*
X253253875Y-141565763D01*
X253423903Y-141636562D01*
X253604476Y-141672828D01*
X253788655Y-141673171D01*
X253969361Y-141637574D01*
X254139651Y-141567408D01*
X254142725Y-141565763D01*
X254153236Y-141372541D01*
X253698300Y-140917605D01*
X253243364Y-141372541D01*
X252953236Y-141372541D01*
X252498300Y-140917605D01*
X252043364Y-141372541D01*
X243355644Y-141372541D01*
X243617578Y-141197523D01*
X243859243Y-140955858D01*
X244049117Y-140671691D01*
X244179905Y-140355941D01*
X244246580Y-140020743D01*
X244246580Y-139678977D01*
X244179905Y-139343779D01*
X244049117Y-139028029D01*
X243859243Y-138743862D01*
X243617578Y-138502197D01*
X243333411Y-138312323D01*
X243017661Y-138181535D01*
X242682463Y-138114860D01*
X242340697Y-138114860D01*
X242005499Y-138181535D01*
X241689749Y-138312323D01*
X241405582Y-138502197D01*
X241163917Y-138743862D01*
X240974043Y-139028029D01*
X240843255Y-139343779D01*
X240776580Y-139678977D01*
X233950302Y-139678977D01*
X233922564Y-139397348D01*
X233836506Y-139113655D01*
X233696757Y-138852201D01*
X233508685Y-138623035D01*
X233279519Y-138434963D01*
X233251671Y-138420078D01*
X233388243Y-138330636D01*
X233599876Y-138122874D01*
X233766911Y-137877817D01*
X233882928Y-137604882D01*
X233900642Y-137512411D01*
X233779586Y-137279380D01*
X232336340Y-137279380D01*
X232336340Y-137299380D01*
X232082340Y-137299380D01*
X232082340Y-137279380D01*
X230639094Y-137279380D01*
X230518038Y-137512411D01*
X230535752Y-137604882D01*
X230651769Y-137877817D01*
X230818804Y-138122874D01*
X231030437Y-138330636D01*
X231167009Y-138420078D01*
X231139161Y-138434963D01*
X230909995Y-138623035D01*
X230721923Y-138852201D01*
X230582174Y-139113655D01*
X230496116Y-139397348D01*
X230467058Y-139692380D01*
X229399635Y-139692380D01*
X229399635Y-136792349D01*
X230518038Y-136792349D01*
X230639094Y-137025380D01*
X232082340Y-137025380D01*
X232082340Y-135801794D01*
X232336340Y-135801794D01*
X232336340Y-137025380D01*
X233779586Y-137025380D01*
X233900642Y-136792349D01*
X233882928Y-136699878D01*
X233766911Y-136426943D01*
X233599876Y-136181886D01*
X233388243Y-135974124D01*
X233140144Y-135811642D01*
X232865113Y-135700684D01*
X232573720Y-135645514D01*
X232336340Y-135801794D01*
X232082340Y-135801794D01*
X231844960Y-135645514D01*
X231553567Y-135700684D01*
X231278536Y-135811642D01*
X231030437Y-135974124D01*
X230818804Y-136181886D01*
X230651769Y-136426943D01*
X230535752Y-136699878D01*
X230518038Y-136792349D01*
X229399635Y-136792349D01*
X229399635Y-135134430D01*
X243242828Y-135134430D01*
X243242828Y-135380650D01*
X243290863Y-135622138D01*
X243385087Y-135849614D01*
X243521879Y-136054338D01*
X243695982Y-136228441D01*
X243900706Y-136365233D01*
X244128182Y-136459457D01*
X244349448Y-136503470D01*
X244208926Y-136597363D01*
X244064763Y-136741526D01*
X243951495Y-136911044D01*
X243873474Y-137099402D01*
X243833700Y-137299361D01*
X243833700Y-137503239D01*
X243873474Y-137703198D01*
X243951495Y-137891556D01*
X244064763Y-138061074D01*
X244208926Y-138205237D01*
X244378444Y-138318505D01*
X244566802Y-138396526D01*
X244656964Y-138414460D01*
X244621100Y-138594761D01*
X244621100Y-138798639D01*
X244660874Y-138998598D01*
X244738895Y-139186956D01*
X244852163Y-139356474D01*
X244996326Y-139500637D01*
X245165844Y-139613905D01*
X245354202Y-139691926D01*
X245554161Y-139731700D01*
X245758039Y-139731700D01*
X245957998Y-139691926D01*
X246126000Y-139622337D01*
X246294002Y-139691926D01*
X246493961Y-139731700D01*
X246697839Y-139731700D01*
X246897798Y-139691926D01*
X247059450Y-139624967D01*
X247221102Y-139691926D01*
X247421061Y-139731700D01*
X247624939Y-139731700D01*
X247641755Y-139728355D01*
X251563129Y-139728355D01*
X251598726Y-139909061D01*
X251668892Y-140079351D01*
X251670537Y-140082425D01*
X251818032Y-140090448D01*
X251744586Y-140163894D01*
X251768692Y-140188000D01*
X251744586Y-140212106D01*
X251818032Y-140285552D01*
X251670537Y-140293575D01*
X251599738Y-140463603D01*
X251563472Y-140644176D01*
X251563129Y-140828355D01*
X251598726Y-141009061D01*
X251668892Y-141179351D01*
X251670537Y-141182425D01*
X251863759Y-141192936D01*
X252318695Y-140738000D01*
X252304553Y-140723858D01*
X252455487Y-140572923D01*
X252541273Y-140573083D01*
X252692048Y-140723858D01*
X252677905Y-140738000D01*
X252763139Y-140823234D01*
X252763129Y-140828355D01*
X252798726Y-141009061D01*
X252868892Y-141179351D01*
X252870537Y-141182425D01*
X253063759Y-141192936D01*
X253098300Y-141158395D01*
X253132841Y-141192936D01*
X253326063Y-141182425D01*
X253396862Y-141012397D01*
X253433128Y-140831824D01*
X253433143Y-140823552D01*
X253518695Y-140738000D01*
X253504553Y-140723858D01*
X253655487Y-140572923D01*
X253741273Y-140573083D01*
X253892048Y-140723858D01*
X253877905Y-140738000D01*
X254332841Y-141192936D01*
X254526063Y-141182425D01*
X254596862Y-141012397D01*
X254633128Y-140831824D01*
X254633471Y-140647645D01*
X254597874Y-140466939D01*
X254527708Y-140296649D01*
X254526063Y-140293575D01*
X254378568Y-140285552D01*
X254452014Y-140212106D01*
X254427908Y-140188000D01*
X254452014Y-140163894D01*
X254378568Y-140090448D01*
X254526063Y-140082425D01*
X254596862Y-139912397D01*
X254633128Y-139731824D01*
X254633471Y-139547645D01*
X254597874Y-139366939D01*
X254527708Y-139196649D01*
X254526063Y-139193575D01*
X254332841Y-139183064D01*
X253877905Y-139638000D01*
X253892048Y-139652143D01*
X253741113Y-139803077D01*
X253655327Y-139802917D01*
X253504553Y-139652143D01*
X253518695Y-139638000D01*
X253433461Y-139552766D01*
X253433471Y-139547645D01*
X253397874Y-139366939D01*
X253327708Y-139196649D01*
X253327610Y-139196466D01*
X253423903Y-139236562D01*
X253489677Y-139249772D01*
X253698300Y-139458395D01*
X253906797Y-139249898D01*
X253969361Y-139237574D01*
X254139651Y-139167408D01*
X254142725Y-139165763D01*
X254151457Y-139005238D01*
X254153236Y-139003459D01*
X254152395Y-138988000D01*
X254153236Y-138972541D01*
X254151457Y-138970762D01*
X254142725Y-138810237D01*
X253972697Y-138739438D01*
X253906923Y-138726228D01*
X253698300Y-138517605D01*
X253489803Y-138726102D01*
X253427239Y-138738426D01*
X253327224Y-138779636D01*
X253396862Y-138612397D01*
X253433128Y-138431824D01*
X253433143Y-138423552D01*
X253518695Y-138338000D01*
X253877905Y-138338000D01*
X254332841Y-138792936D01*
X254526063Y-138782425D01*
X254596862Y-138612397D01*
X254633128Y-138431824D01*
X254633471Y-138247645D01*
X254597874Y-138066939D01*
X254590483Y-138049000D01*
X266291218Y-138049000D01*
X266320276Y-138344032D01*
X266406334Y-138627725D01*
X266546083Y-138889179D01*
X266734155Y-139118345D01*
X266963321Y-139306417D01*
X267224775Y-139446166D01*
X267508468Y-139532224D01*
X267729564Y-139554000D01*
X268337436Y-139554000D01*
X268558532Y-139532224D01*
X268842225Y-139446166D01*
X269103679Y-139306417D01*
X269332845Y-139118345D01*
X269520917Y-138889179D01*
X269660666Y-138627725D01*
X269746724Y-138344032D01*
X269775782Y-138049000D01*
X269746724Y-137753968D01*
X269660666Y-137470275D01*
X269520917Y-137208821D01*
X269334453Y-136981615D01*
X269377680Y-136968502D01*
X269487994Y-136909537D01*
X269584685Y-136830185D01*
X269664037Y-136733494D01*
X269723002Y-136623180D01*
X269759312Y-136503482D01*
X269771572Y-136379000D01*
X269768500Y-135794750D01*
X269609750Y-135636000D01*
X268160500Y-135636000D01*
X268160500Y-135656000D01*
X267906500Y-135656000D01*
X267906500Y-135636000D01*
X266457250Y-135636000D01*
X266298500Y-135794750D01*
X266295428Y-136379000D01*
X266307688Y-136503482D01*
X266343998Y-136623180D01*
X266402963Y-136733494D01*
X266482315Y-136830185D01*
X266579006Y-136909537D01*
X266689320Y-136968502D01*
X266732547Y-136981615D01*
X266546083Y-137208821D01*
X266406334Y-137470275D01*
X266320276Y-137753968D01*
X266291218Y-138049000D01*
X254590483Y-138049000D01*
X254527708Y-137896649D01*
X254526063Y-137893575D01*
X254332841Y-137883064D01*
X253877905Y-138338000D01*
X253518695Y-138338000D01*
X253433461Y-138252766D01*
X253433471Y-138247645D01*
X253397874Y-138066939D01*
X253377375Y-138017188D01*
X253423903Y-138036562D01*
X253604476Y-138072828D01*
X253612748Y-138072843D01*
X253698300Y-138158395D01*
X253783534Y-138073161D01*
X253788655Y-138073171D01*
X253969361Y-138037574D01*
X254139651Y-137967408D01*
X254142725Y-137965763D01*
X254153236Y-137772541D01*
X254118695Y-137738000D01*
X254153236Y-137703459D01*
X254142725Y-137510237D01*
X253972697Y-137439438D01*
X253792124Y-137403172D01*
X253783852Y-137403157D01*
X253698300Y-137317605D01*
X253613066Y-137402839D01*
X253607945Y-137402829D01*
X253427239Y-137438426D01*
X253377488Y-137458925D01*
X253396862Y-137412397D01*
X253433128Y-137231824D01*
X253433143Y-137223552D01*
X253518695Y-137138000D01*
X253877905Y-137138000D01*
X254332841Y-137592936D01*
X254526063Y-137582425D01*
X254596862Y-137412397D01*
X254633128Y-137231824D01*
X254633471Y-137047645D01*
X254597874Y-136866939D01*
X254527708Y-136696649D01*
X254526063Y-136693575D01*
X254332841Y-136683064D01*
X253877905Y-137138000D01*
X253518695Y-137138000D01*
X253433461Y-137052766D01*
X253433471Y-137047645D01*
X253397874Y-136866939D01*
X253327708Y-136696649D01*
X253326063Y-136693575D01*
X253132841Y-136683064D01*
X253098300Y-136717605D01*
X253063759Y-136683064D01*
X252870537Y-136693575D01*
X252799738Y-136863603D01*
X252763472Y-137044176D01*
X252763457Y-137052448D01*
X252677905Y-137138000D01*
X252763139Y-137223234D01*
X252763129Y-137228355D01*
X252798726Y-137409061D01*
X252819225Y-137458812D01*
X252772697Y-137439438D01*
X252592124Y-137403172D01*
X252583852Y-137403157D01*
X252498300Y-137317605D01*
X252413066Y-137402839D01*
X252407945Y-137402829D01*
X252227239Y-137438426D01*
X252056949Y-137508592D01*
X252053875Y-137510237D01*
X252043364Y-137703459D01*
X252077905Y-137738000D01*
X252043364Y-137772541D01*
X252053875Y-137965763D01*
X252223903Y-138036562D01*
X252404476Y-138072828D01*
X252412748Y-138072843D01*
X252498300Y-138158395D01*
X252583534Y-138073161D01*
X252588655Y-138073171D01*
X252769361Y-138037574D01*
X252819112Y-138017075D01*
X252799738Y-138063603D01*
X252763472Y-138244176D01*
X252763457Y-138252448D01*
X252677905Y-138338000D01*
X252763139Y-138423234D01*
X252763129Y-138428355D01*
X252798726Y-138609061D01*
X252868892Y-138779351D01*
X252868990Y-138779534D01*
X252772697Y-138739438D01*
X252706923Y-138726228D01*
X252498300Y-138517605D01*
X252289803Y-138726102D01*
X252227239Y-138738426D01*
X252056949Y-138808592D01*
X252053875Y-138810237D01*
X252045143Y-138970762D01*
X252043364Y-138972541D01*
X252044205Y-138988000D01*
X252043364Y-139003459D01*
X252045143Y-139005238D01*
X252053875Y-139165763D01*
X252223903Y-139236562D01*
X252289677Y-139249772D01*
X252498300Y-139458395D01*
X252706797Y-139249898D01*
X252769361Y-139237574D01*
X252869376Y-139196364D01*
X252799738Y-139363603D01*
X252763472Y-139544176D01*
X252763457Y-139552448D01*
X252677905Y-139638000D01*
X252692048Y-139652143D01*
X252541113Y-139803077D01*
X252455327Y-139802917D01*
X252304553Y-139652143D01*
X252318695Y-139638000D01*
X251863759Y-139183064D01*
X251670537Y-139193575D01*
X251599738Y-139363603D01*
X251563472Y-139544176D01*
X251563129Y-139728355D01*
X247641755Y-139728355D01*
X247824898Y-139691926D01*
X248013256Y-139613905D01*
X248182774Y-139500637D01*
X248326937Y-139356474D01*
X248440205Y-139186956D01*
X248518226Y-138998598D01*
X248558000Y-138798639D01*
X248558000Y-138594761D01*
X248524901Y-138428355D01*
X251563129Y-138428355D01*
X251598726Y-138609061D01*
X251668892Y-138779351D01*
X251670537Y-138782425D01*
X251863759Y-138792936D01*
X252318695Y-138338000D01*
X251863759Y-137883064D01*
X251670537Y-137893575D01*
X251599738Y-138063603D01*
X251563472Y-138244176D01*
X251563129Y-138428355D01*
X248524901Y-138428355D01*
X248518226Y-138394802D01*
X248440205Y-138206444D01*
X248326937Y-138036926D01*
X248182774Y-137892763D01*
X248013256Y-137779495D01*
X247824898Y-137701474D01*
X247624939Y-137661700D01*
X247421061Y-137661700D01*
X247221102Y-137701474D01*
X247059450Y-137768433D01*
X246897798Y-137701474D01*
X246697839Y-137661700D01*
X246493961Y-137661700D01*
X246294002Y-137701474D01*
X246126000Y-137771063D01*
X245957998Y-137701474D01*
X245867836Y-137683540D01*
X245903700Y-137503239D01*
X245903700Y-137299361D01*
X245889577Y-137228355D01*
X251563129Y-137228355D01*
X251598726Y-137409061D01*
X251668892Y-137579351D01*
X251670537Y-137582425D01*
X251863759Y-137592936D01*
X252318695Y-137138000D01*
X251863759Y-136683064D01*
X251670537Y-136693575D01*
X251599738Y-136863603D01*
X251563472Y-137044176D01*
X251563129Y-137228355D01*
X245889577Y-137228355D01*
X245863926Y-137099402D01*
X245785905Y-136911044D01*
X245672637Y-136741526D01*
X245528474Y-136597363D01*
X245387937Y-136503459D01*
X252043364Y-136503459D01*
X252498300Y-136958395D01*
X252953236Y-136503459D01*
X253243364Y-136503459D01*
X253698300Y-136958395D01*
X254153236Y-136503459D01*
X254142725Y-136310237D01*
X253972697Y-136239438D01*
X253792124Y-136203172D01*
X253607945Y-136202829D01*
X253427239Y-136238426D01*
X253256949Y-136308592D01*
X253253875Y-136310237D01*
X253243364Y-136503459D01*
X252953236Y-136503459D01*
X252942725Y-136310237D01*
X252772697Y-136239438D01*
X252592124Y-136203172D01*
X252407945Y-136202829D01*
X252227239Y-136238426D01*
X252056949Y-136308592D01*
X252053875Y-136310237D01*
X252043364Y-136503459D01*
X245387937Y-136503459D01*
X245358956Y-136484095D01*
X245170598Y-136406074D01*
X245046060Y-136381302D01*
X245084854Y-136365233D01*
X245289578Y-136228441D01*
X245463681Y-136054338D01*
X245600473Y-135849614D01*
X245694697Y-135622138D01*
X245742732Y-135380650D01*
X245742732Y-135134430D01*
X245694697Y-134892942D01*
X245600473Y-134665466D01*
X245582790Y-134639000D01*
X266295428Y-134639000D01*
X266298500Y-135223250D01*
X266457250Y-135382000D01*
X267906500Y-135382000D01*
X267906500Y-134162750D01*
X268160500Y-134162750D01*
X268160500Y-135382000D01*
X269609750Y-135382000D01*
X269768500Y-135223250D01*
X269771572Y-134639000D01*
X269759312Y-134514518D01*
X269723002Y-134394820D01*
X269664037Y-134284506D01*
X269584685Y-134187815D01*
X269487994Y-134108463D01*
X269377680Y-134049498D01*
X269257982Y-134013188D01*
X269133500Y-134000928D01*
X268319250Y-134004000D01*
X268160500Y-134162750D01*
X267906500Y-134162750D01*
X267747750Y-134004000D01*
X266933500Y-134000928D01*
X266809018Y-134013188D01*
X266689320Y-134049498D01*
X266579006Y-134108463D01*
X266482315Y-134187815D01*
X266402963Y-134284506D01*
X266343998Y-134394820D01*
X266307688Y-134514518D01*
X266295428Y-134639000D01*
X245582790Y-134639000D01*
X245463681Y-134460742D01*
X245289578Y-134286639D01*
X245084854Y-134149847D01*
X244857378Y-134055623D01*
X244615890Y-134007588D01*
X244369670Y-134007588D01*
X244128182Y-134055623D01*
X243900706Y-134149847D01*
X243695982Y-134286639D01*
X243521879Y-134460742D01*
X243385087Y-134665466D01*
X243290863Y-134892942D01*
X243242828Y-135134430D01*
X229399635Y-135134430D01*
X229399635Y-130817620D01*
X230472138Y-130817620D01*
X230501196Y-131112652D01*
X230587254Y-131396345D01*
X230727003Y-131657799D01*
X230915075Y-131886965D01*
X230980534Y-131940686D01*
X230871033Y-131999215D01*
X230736458Y-132109658D01*
X230626015Y-132244233D01*
X230543948Y-132397769D01*
X230493412Y-132564365D01*
X230476348Y-132737619D01*
X230476348Y-133977621D01*
X230493412Y-134150875D01*
X230543948Y-134317471D01*
X230626015Y-134471007D01*
X230736458Y-134605582D01*
X230871033Y-134716025D01*
X231024569Y-134798092D01*
X231191165Y-134848628D01*
X231364419Y-134865692D01*
X233064421Y-134865692D01*
X233237675Y-134848628D01*
X233404271Y-134798092D01*
X233557807Y-134716025D01*
X233692382Y-134605582D01*
X233802825Y-134471007D01*
X233884892Y-134317471D01*
X233935428Y-134150875D01*
X233952492Y-133977621D01*
X233952492Y-132737619D01*
X233935428Y-132564365D01*
X233884892Y-132397769D01*
X233802825Y-132244233D01*
X233692382Y-132109658D01*
X233557807Y-131999215D01*
X233448306Y-131940686D01*
X233513765Y-131886965D01*
X233701837Y-131657799D01*
X233841586Y-131396345D01*
X233927644Y-131112652D01*
X233956702Y-130817620D01*
X233927644Y-130522588D01*
X233841586Y-130238895D01*
X233701837Y-129977441D01*
X233592703Y-129844461D01*
X244214700Y-129844461D01*
X244214700Y-130048339D01*
X244254474Y-130248298D01*
X244332495Y-130436656D01*
X244445763Y-130606174D01*
X244589926Y-130750337D01*
X244759444Y-130863605D01*
X244947802Y-130941626D01*
X245147761Y-130981400D01*
X245351639Y-130981400D01*
X245551598Y-130941626D01*
X245739956Y-130863605D01*
X245909474Y-130750337D01*
X246053637Y-130606174D01*
X246166905Y-130436656D01*
X246244926Y-130248298D01*
X246284700Y-130048339D01*
X246284700Y-129844461D01*
X246244926Y-129644502D01*
X246166905Y-129456144D01*
X246053637Y-129286626D01*
X245909474Y-129142463D01*
X245739956Y-129029195D01*
X245551598Y-128951174D01*
X245351639Y-128911400D01*
X245147761Y-128911400D01*
X244947802Y-128951174D01*
X244759444Y-129029195D01*
X244589926Y-129142463D01*
X244445763Y-129286626D01*
X244332495Y-129456144D01*
X244254474Y-129644502D01*
X244214700Y-129844461D01*
X233592703Y-129844461D01*
X233513765Y-129748275D01*
X233284599Y-129560203D01*
X233256751Y-129545318D01*
X233393323Y-129455876D01*
X233604956Y-129248114D01*
X233771991Y-129003057D01*
X233840664Y-128841500D01*
X266291218Y-128841500D01*
X266320276Y-129136532D01*
X266406334Y-129420225D01*
X266546083Y-129681679D01*
X266734155Y-129910845D01*
X266963321Y-130098917D01*
X267224775Y-130238666D01*
X267508468Y-130324724D01*
X267729564Y-130346500D01*
X268337436Y-130346500D01*
X268558532Y-130324724D01*
X268842225Y-130238666D01*
X269103679Y-130098917D01*
X269332845Y-129910845D01*
X269520917Y-129681679D01*
X269660666Y-129420225D01*
X269746724Y-129136532D01*
X269775782Y-128841500D01*
X269746724Y-128546468D01*
X269660666Y-128262775D01*
X269520917Y-128001321D01*
X269334453Y-127774115D01*
X269377680Y-127761002D01*
X269487994Y-127702037D01*
X269584685Y-127622685D01*
X269664037Y-127525994D01*
X269723002Y-127415680D01*
X269759312Y-127295982D01*
X269771572Y-127171500D01*
X269768500Y-126587250D01*
X269609750Y-126428500D01*
X268160500Y-126428500D01*
X268160500Y-126448500D01*
X267906500Y-126448500D01*
X267906500Y-126428500D01*
X266457250Y-126428500D01*
X266298500Y-126587250D01*
X266295428Y-127171500D01*
X266307688Y-127295982D01*
X266343998Y-127415680D01*
X266402963Y-127525994D01*
X266482315Y-127622685D01*
X266579006Y-127702037D01*
X266689320Y-127761002D01*
X266732547Y-127774115D01*
X266546083Y-128001321D01*
X266406334Y-128262775D01*
X266320276Y-128546468D01*
X266291218Y-128841500D01*
X233840664Y-128841500D01*
X233888008Y-128730122D01*
X233905722Y-128637651D01*
X233784666Y-128404620D01*
X232341420Y-128404620D01*
X232341420Y-128424620D01*
X232087420Y-128424620D01*
X232087420Y-128404620D01*
X230644174Y-128404620D01*
X230523118Y-128637651D01*
X230540832Y-128730122D01*
X230656849Y-129003057D01*
X230823884Y-129248114D01*
X231035517Y-129455876D01*
X231172089Y-129545318D01*
X231144241Y-129560203D01*
X230915075Y-129748275D01*
X230727003Y-129977441D01*
X230587254Y-130238895D01*
X230501196Y-130522588D01*
X230472138Y-130817620D01*
X229399635Y-130817620D01*
X229399635Y-127917589D01*
X230523118Y-127917589D01*
X230644174Y-128150620D01*
X232087420Y-128150620D01*
X232087420Y-126927034D01*
X232341420Y-126927034D01*
X232341420Y-128150620D01*
X233784666Y-128150620D01*
X233905722Y-127917589D01*
X233888008Y-127825118D01*
X233771991Y-127552183D01*
X233604956Y-127307126D01*
X233393323Y-127099364D01*
X233145224Y-126936882D01*
X232870193Y-126825924D01*
X232578800Y-126770754D01*
X232341420Y-126927034D01*
X232087420Y-126927034D01*
X231850040Y-126770754D01*
X231558647Y-126825924D01*
X231283616Y-126936882D01*
X231035517Y-127099364D01*
X230823884Y-127307126D01*
X230656849Y-127552183D01*
X230540832Y-127825118D01*
X230523118Y-127917589D01*
X229399635Y-127917589D01*
X229399635Y-121886980D01*
X230477218Y-121886980D01*
X230506276Y-122182012D01*
X230592334Y-122465705D01*
X230732083Y-122727159D01*
X230920155Y-122956325D01*
X230985614Y-123010046D01*
X230876113Y-123068575D01*
X230741538Y-123179018D01*
X230631095Y-123313593D01*
X230549028Y-123467129D01*
X230498492Y-123633725D01*
X230481428Y-123806979D01*
X230481428Y-125046981D01*
X230498492Y-125220235D01*
X230549028Y-125386831D01*
X230631095Y-125540367D01*
X230741538Y-125674942D01*
X230876113Y-125785385D01*
X231029649Y-125867452D01*
X231196245Y-125917988D01*
X231369499Y-125935052D01*
X233069501Y-125935052D01*
X233242755Y-125917988D01*
X233409351Y-125867452D01*
X233562887Y-125785385D01*
X233697462Y-125674942D01*
X233713417Y-125655500D01*
X243775128Y-125655500D01*
X243775128Y-127455500D01*
X243787388Y-127579982D01*
X243823698Y-127699680D01*
X243882663Y-127809994D01*
X243962015Y-127906685D01*
X244058706Y-127986037D01*
X244169020Y-128045002D01*
X244288718Y-128081312D01*
X244413200Y-128093572D01*
X246213200Y-128093572D01*
X246337682Y-128081312D01*
X246457380Y-128045002D01*
X246567694Y-127986037D01*
X246664385Y-127906685D01*
X246743737Y-127809994D01*
X246802702Y-127699680D01*
X246839012Y-127579982D01*
X246851272Y-127455500D01*
X246851272Y-125655500D01*
X246839012Y-125531018D01*
X246808824Y-125431500D01*
X266295428Y-125431500D01*
X266298500Y-126015750D01*
X266457250Y-126174500D01*
X267906500Y-126174500D01*
X267906500Y-124955250D01*
X268160500Y-124955250D01*
X268160500Y-126174500D01*
X269609750Y-126174500D01*
X269768500Y-126015750D01*
X269771572Y-125431500D01*
X269759312Y-125307018D01*
X269723002Y-125187320D01*
X269664037Y-125077006D01*
X269584685Y-124980315D01*
X269487994Y-124900963D01*
X269377680Y-124841998D01*
X269257982Y-124805688D01*
X269133500Y-124793428D01*
X268319250Y-124796500D01*
X268160500Y-124955250D01*
X267906500Y-124955250D01*
X267747750Y-124796500D01*
X266933500Y-124793428D01*
X266809018Y-124805688D01*
X266689320Y-124841998D01*
X266579006Y-124900963D01*
X266482315Y-124980315D01*
X266402963Y-125077006D01*
X266343998Y-125187320D01*
X266307688Y-125307018D01*
X266295428Y-125431500D01*
X246808824Y-125431500D01*
X246802702Y-125411320D01*
X246743737Y-125301006D01*
X246664385Y-125204315D01*
X246567694Y-125124963D01*
X246457380Y-125065998D01*
X246439073Y-125060444D01*
X246505512Y-124994005D01*
X246673499Y-124742595D01*
X246789211Y-124463243D01*
X246848200Y-124166684D01*
X246848200Y-123864316D01*
X246789211Y-123567757D01*
X246673499Y-123288405D01*
X246505512Y-123036995D01*
X246291705Y-122823188D01*
X246040295Y-122655201D01*
X245760943Y-122539489D01*
X245464384Y-122480500D01*
X245162016Y-122480500D01*
X244865457Y-122539489D01*
X244586105Y-122655201D01*
X244334695Y-122823188D01*
X244120888Y-123036995D01*
X243952901Y-123288405D01*
X243837189Y-123567757D01*
X243778200Y-123864316D01*
X243778200Y-124166684D01*
X243837189Y-124463243D01*
X243952901Y-124742595D01*
X244120888Y-124994005D01*
X244187327Y-125060444D01*
X244169020Y-125065998D01*
X244058706Y-125124963D01*
X243962015Y-125204315D01*
X243882663Y-125301006D01*
X243823698Y-125411320D01*
X243787388Y-125531018D01*
X243775128Y-125655500D01*
X233713417Y-125655500D01*
X233807905Y-125540367D01*
X233889972Y-125386831D01*
X233940508Y-125220235D01*
X233957572Y-125046981D01*
X233957572Y-123806979D01*
X233940508Y-123633725D01*
X233889972Y-123467129D01*
X233807905Y-123313593D01*
X233697462Y-123179018D01*
X233562887Y-123068575D01*
X233453386Y-123010046D01*
X233518845Y-122956325D01*
X233706917Y-122727159D01*
X233846666Y-122465705D01*
X233932724Y-122182012D01*
X233945138Y-122055970D01*
X262290288Y-122055970D01*
X262290288Y-122302190D01*
X262338323Y-122543678D01*
X262432547Y-122771154D01*
X262569339Y-122975878D01*
X262743442Y-123149981D01*
X262948166Y-123286773D01*
X263175642Y-123380997D01*
X263417130Y-123429032D01*
X263663350Y-123429032D01*
X263904838Y-123380997D01*
X264132314Y-123286773D01*
X264337038Y-123149981D01*
X264511141Y-122975878D01*
X264647933Y-122771154D01*
X264742157Y-122543678D01*
X264790192Y-122302190D01*
X264790192Y-122055970D01*
X264742157Y-121814482D01*
X264736124Y-121799917D01*
X266590600Y-121799917D01*
X266590600Y-122141683D01*
X266657275Y-122476881D01*
X266788063Y-122792631D01*
X266977937Y-123076798D01*
X267219602Y-123318463D01*
X267503769Y-123508337D01*
X267819519Y-123639125D01*
X268154717Y-123705800D01*
X268496483Y-123705800D01*
X268831681Y-123639125D01*
X269147431Y-123508337D01*
X269431598Y-123318463D01*
X269673263Y-123076798D01*
X269863137Y-122792631D01*
X269993925Y-122476881D01*
X270060600Y-122141683D01*
X270060600Y-121799917D01*
X269993925Y-121464719D01*
X269863137Y-121148969D01*
X269673263Y-120864802D01*
X269431598Y-120623137D01*
X269147431Y-120433263D01*
X268831681Y-120302475D01*
X268496483Y-120235800D01*
X268154717Y-120235800D01*
X267819519Y-120302475D01*
X267503769Y-120433263D01*
X267219602Y-120623137D01*
X266977937Y-120864802D01*
X266788063Y-121148969D01*
X266657275Y-121464719D01*
X266590600Y-121799917D01*
X264736124Y-121799917D01*
X264647933Y-121587006D01*
X264511141Y-121382282D01*
X264337038Y-121208179D01*
X264132314Y-121071387D01*
X263904838Y-120977163D01*
X263663350Y-120929128D01*
X263417130Y-120929128D01*
X263175642Y-120977163D01*
X262948166Y-121071387D01*
X262743442Y-121208179D01*
X262569339Y-121382282D01*
X262432547Y-121587006D01*
X262338323Y-121814482D01*
X262290288Y-122055970D01*
X233945138Y-122055970D01*
X233961782Y-121886980D01*
X233932724Y-121591948D01*
X233846666Y-121308255D01*
X233706917Y-121046801D01*
X233518845Y-120817635D01*
X233289679Y-120629563D01*
X233261831Y-120614678D01*
X233398403Y-120525236D01*
X233610036Y-120317474D01*
X233651964Y-120255961D01*
X263937800Y-120255961D01*
X263937800Y-120459839D01*
X263977574Y-120659798D01*
X264055595Y-120848156D01*
X264168863Y-121017674D01*
X264313026Y-121161837D01*
X264482544Y-121275105D01*
X264670902Y-121353126D01*
X264870861Y-121392900D01*
X265074739Y-121392900D01*
X265274698Y-121353126D01*
X265463056Y-121275105D01*
X265632574Y-121161837D01*
X265776737Y-121017674D01*
X265890005Y-120848156D01*
X265968026Y-120659798D01*
X266007800Y-120459839D01*
X266007800Y-120271707D01*
X266153561Y-120300700D01*
X266357439Y-120300700D01*
X266557398Y-120260926D01*
X266745756Y-120182905D01*
X266915274Y-120069637D01*
X267059437Y-119925474D01*
X267172705Y-119755956D01*
X267250726Y-119567598D01*
X267290500Y-119367639D01*
X267290500Y-119163761D01*
X267250726Y-118963802D01*
X267172705Y-118775444D01*
X267059437Y-118605926D01*
X266915274Y-118461763D01*
X266745756Y-118348495D01*
X266557398Y-118270474D01*
X266357439Y-118230700D01*
X266153561Y-118230700D01*
X265953602Y-118270474D01*
X265765244Y-118348495D01*
X265595726Y-118461763D01*
X265451563Y-118605926D01*
X265338295Y-118775444D01*
X265260274Y-118963802D01*
X265220500Y-119163761D01*
X265220500Y-119351893D01*
X265074739Y-119322900D01*
X264870861Y-119322900D01*
X264670902Y-119362674D01*
X264482544Y-119440695D01*
X264313026Y-119553963D01*
X264168863Y-119698126D01*
X264055595Y-119867644D01*
X263977574Y-120056002D01*
X263937800Y-120255961D01*
X233651964Y-120255961D01*
X233777071Y-120072417D01*
X233893088Y-119799482D01*
X233910802Y-119707011D01*
X233789746Y-119473980D01*
X232346500Y-119473980D01*
X232346500Y-119493980D01*
X232092500Y-119493980D01*
X232092500Y-119473980D01*
X230649254Y-119473980D01*
X230528198Y-119707011D01*
X230545912Y-119799482D01*
X230661929Y-120072417D01*
X230828964Y-120317474D01*
X231040597Y-120525236D01*
X231177169Y-120614678D01*
X231149321Y-120629563D01*
X230920155Y-120817635D01*
X230732083Y-121046801D01*
X230592334Y-121308255D01*
X230506276Y-121591948D01*
X230477218Y-121886980D01*
X229399635Y-121886980D01*
X229399635Y-118986949D01*
X230528198Y-118986949D01*
X230649254Y-119219980D01*
X232092500Y-119219980D01*
X232092500Y-117996394D01*
X232346500Y-117996394D01*
X232346500Y-119219980D01*
X233789746Y-119219980D01*
X233910802Y-118986949D01*
X233893088Y-118894478D01*
X233777071Y-118621543D01*
X233610036Y-118376486D01*
X233398403Y-118168724D01*
X233150304Y-118006242D01*
X232875273Y-117895284D01*
X232583880Y-117840114D01*
X232346500Y-117996394D01*
X232092500Y-117996394D01*
X231855120Y-117840114D01*
X231563727Y-117895284D01*
X231288696Y-118006242D01*
X231040597Y-118168724D01*
X230828964Y-118376486D01*
X230661929Y-118621543D01*
X230545912Y-118894478D01*
X230528198Y-118986949D01*
X229399635Y-118986949D01*
X229399635Y-115183333D01*
X231076352Y-115183333D01*
X231141877Y-115422200D01*
X231388856Y-115538100D01*
X231653700Y-115603590D01*
X231926232Y-115616152D01*
X232195978Y-115575305D01*
X232452572Y-115482617D01*
X232565603Y-115422200D01*
X232631128Y-115183333D01*
X231853740Y-114405945D01*
X231076352Y-115183333D01*
X229399635Y-115183333D01*
X229399635Y-114298832D01*
X230463928Y-114298832D01*
X230504775Y-114568578D01*
X230597463Y-114825172D01*
X230657880Y-114938203D01*
X230896747Y-115003728D01*
X231674135Y-114226340D01*
X232033345Y-114226340D01*
X232810733Y-115003728D01*
X233049600Y-114938203D01*
X233165500Y-114691224D01*
X233230990Y-114426380D01*
X233243552Y-114153848D01*
X233202705Y-113884102D01*
X233110017Y-113627508D01*
X233049600Y-113514477D01*
X232810733Y-113448952D01*
X232033345Y-114226340D01*
X231674135Y-114226340D01*
X230896747Y-113448952D01*
X230657880Y-113514477D01*
X230541980Y-113761456D01*
X230476490Y-114026300D01*
X230463928Y-114298832D01*
X229399635Y-114298832D01*
X229399635Y-105856340D01*
X230465668Y-105856340D01*
X230465668Y-107356340D01*
X230477928Y-107480822D01*
X230514238Y-107600520D01*
X230573203Y-107710834D01*
X230652555Y-107807525D01*
X230749246Y-107886877D01*
X230859560Y-107945842D01*
X230979258Y-107982152D01*
X231087223Y-107992785D01*
X230970854Y-108070541D01*
X230777941Y-108263454D01*
X230626369Y-108490297D01*
X230521965Y-108742351D01*
X230468740Y-109009929D01*
X230468740Y-109282751D01*
X230521965Y-109550329D01*
X230626369Y-109802383D01*
X230777941Y-110029226D01*
X230970854Y-110222139D01*
X231197697Y-110373711D01*
X231300613Y-110416340D01*
X231197697Y-110458969D01*
X230970854Y-110610541D01*
X230777941Y-110803454D01*
X230626369Y-111030297D01*
X230521965Y-111282351D01*
X230468740Y-111549929D01*
X230468740Y-111822751D01*
X230521965Y-112090329D01*
X230626369Y-112342383D01*
X230777941Y-112569226D01*
X230970854Y-112762139D01*
X231197697Y-112913711D01*
X231297019Y-112954851D01*
X231254908Y-112970063D01*
X231141877Y-113030480D01*
X231076352Y-113269347D01*
X231853740Y-114046735D01*
X232631128Y-113269347D01*
X232565603Y-113030480D01*
X232407263Y-112956176D01*
X232509783Y-112913711D01*
X232736626Y-112762139D01*
X232929539Y-112569226D01*
X233081111Y-112342383D01*
X233185515Y-112090329D01*
X233238740Y-111822751D01*
X233238740Y-111549929D01*
X233219830Y-111454861D01*
X240836500Y-111454861D01*
X240836500Y-111658739D01*
X240876274Y-111858698D01*
X240954295Y-112047056D01*
X241067563Y-112216574D01*
X241211726Y-112360737D01*
X241381244Y-112474005D01*
X241569602Y-112552026D01*
X241769561Y-112591800D01*
X241973439Y-112591800D01*
X242173398Y-112552026D01*
X242361756Y-112474005D01*
X242531274Y-112360737D01*
X242675437Y-112216574D01*
X242788705Y-112047056D01*
X242866726Y-111858698D01*
X242906500Y-111658739D01*
X242906500Y-111454861D01*
X242866726Y-111254902D01*
X242788705Y-111066544D01*
X242675437Y-110897026D01*
X242531274Y-110752863D01*
X242361756Y-110639595D01*
X242173398Y-110561574D01*
X241973439Y-110521800D01*
X241769561Y-110521800D01*
X241569602Y-110561574D01*
X241381244Y-110639595D01*
X241211726Y-110752863D01*
X241067563Y-110897026D01*
X240954295Y-111066544D01*
X240876274Y-111254902D01*
X240836500Y-111454861D01*
X233219830Y-111454861D01*
X233185515Y-111282351D01*
X233081111Y-111030297D01*
X232929539Y-110803454D01*
X232736626Y-110610541D01*
X232509783Y-110458969D01*
X232406867Y-110416340D01*
X232509783Y-110373711D01*
X232736626Y-110222139D01*
X232929539Y-110029226D01*
X233019633Y-109894390D01*
X264750524Y-109894390D01*
X264795175Y-110041599D01*
X264920359Y-110304420D01*
X265094412Y-110537769D01*
X265310645Y-110732678D01*
X265560748Y-110881657D01*
X265835109Y-110978981D01*
X266065000Y-110858314D01*
X266065000Y-109664500D01*
X266319000Y-109664500D01*
X266319000Y-110858314D01*
X266548891Y-110978981D01*
X266823252Y-110881657D01*
X267073355Y-110732678D01*
X267289588Y-110537769D01*
X267463641Y-110304420D01*
X267588825Y-110041599D01*
X267633476Y-109894390D01*
X267512155Y-109664500D01*
X266319000Y-109664500D01*
X266065000Y-109664500D01*
X264871845Y-109664500D01*
X264750524Y-109894390D01*
X233019633Y-109894390D01*
X233081111Y-109802383D01*
X233185515Y-109550329D01*
X233238740Y-109282751D01*
X233238740Y-109009929D01*
X233185515Y-108742351D01*
X233081111Y-108490297D01*
X232929539Y-108263454D01*
X232736626Y-108070541D01*
X232620257Y-107992785D01*
X232728222Y-107982152D01*
X232847920Y-107945842D01*
X232958234Y-107886877D01*
X233054925Y-107807525D01*
X233134277Y-107710834D01*
X233193242Y-107600520D01*
X233229552Y-107480822D01*
X233241812Y-107356340D01*
X233241812Y-105856340D01*
X233229552Y-105731858D01*
X233193242Y-105612160D01*
X233134277Y-105501846D01*
X233054925Y-105405155D01*
X232958234Y-105325803D01*
X232847920Y-105266838D01*
X232728222Y-105230528D01*
X232603740Y-105218268D01*
X231103740Y-105218268D01*
X230979258Y-105230528D01*
X230859560Y-105266838D01*
X230749246Y-105325803D01*
X230652555Y-105405155D01*
X230573203Y-105501846D01*
X230514238Y-105612160D01*
X230477928Y-105731858D01*
X230465668Y-105856340D01*
X229399635Y-105856340D01*
X229399635Y-104778992D01*
X229469865Y-103992080D01*
X229603208Y-103504661D01*
X239828120Y-103504661D01*
X239828120Y-103708539D01*
X239867894Y-103908498D01*
X239945915Y-104096856D01*
X240059183Y-104266374D01*
X240203346Y-104410537D01*
X240372864Y-104523805D01*
X240561222Y-104601826D01*
X240761181Y-104641600D01*
X240965059Y-104641600D01*
X241165018Y-104601826D01*
X241353376Y-104523805D01*
X241522894Y-104410537D01*
X241667057Y-104266374D01*
X241780325Y-104096856D01*
X241858346Y-103908498D01*
X241898120Y-103708539D01*
X241898120Y-103607500D01*
X264703928Y-103607500D01*
X264703928Y-105307500D01*
X264716188Y-105431982D01*
X264752498Y-105551680D01*
X264811463Y-105661994D01*
X264890815Y-105758685D01*
X264987506Y-105838037D01*
X265097820Y-105897002D01*
X265170380Y-105919013D01*
X265038525Y-106050868D01*
X264876010Y-106294089D01*
X264764068Y-106564342D01*
X264707000Y-106851240D01*
X264707000Y-107143760D01*
X264764068Y-107430658D01*
X264876010Y-107700911D01*
X265038525Y-107944132D01*
X265245368Y-108150975D01*
X265427534Y-108272695D01*
X265310645Y-108342322D01*
X265094412Y-108537231D01*
X264920359Y-108770580D01*
X264795175Y-109033401D01*
X264750524Y-109180610D01*
X264871845Y-109410500D01*
X266065000Y-109410500D01*
X266065000Y-109390500D01*
X266319000Y-109390500D01*
X266319000Y-109410500D01*
X267512155Y-109410500D01*
X267633476Y-109180610D01*
X267588825Y-109033401D01*
X267463641Y-108770580D01*
X267289588Y-108537231D01*
X267073355Y-108342322D01*
X266956466Y-108272695D01*
X267138632Y-108150975D01*
X267345475Y-107944132D01*
X267507990Y-107700911D01*
X267619932Y-107430658D01*
X267677000Y-107143760D01*
X267677000Y-106851240D01*
X267619932Y-106564342D01*
X267507990Y-106294089D01*
X267345475Y-106050868D01*
X267213620Y-105919013D01*
X267286180Y-105897002D01*
X267396494Y-105838037D01*
X267493185Y-105758685D01*
X267572537Y-105661994D01*
X267631502Y-105551680D01*
X267667812Y-105431982D01*
X267680072Y-105307500D01*
X267680072Y-103607500D01*
X267667812Y-103483018D01*
X267631502Y-103363320D01*
X267572537Y-103253006D01*
X267493185Y-103156315D01*
X267396494Y-103076963D01*
X267286180Y-103017998D01*
X267166482Y-102981688D01*
X267042000Y-102969428D01*
X265342000Y-102969428D01*
X265217518Y-102981688D01*
X265097820Y-103017998D01*
X264987506Y-103076963D01*
X264890815Y-103156315D01*
X264811463Y-103253006D01*
X264752498Y-103363320D01*
X264716188Y-103483018D01*
X264703928Y-103607500D01*
X241898120Y-103607500D01*
X241898120Y-103504661D01*
X241858346Y-103304702D01*
X241799188Y-103161882D01*
X241863426Y-103006798D01*
X241903200Y-102806839D01*
X241903200Y-102602961D01*
X241863426Y-102403002D01*
X241785405Y-102214644D01*
X241672137Y-102045126D01*
X241527974Y-101900963D01*
X241358456Y-101787695D01*
X241170098Y-101709674D01*
X240970139Y-101669900D01*
X240766261Y-101669900D01*
X240566302Y-101709674D01*
X240377944Y-101787695D01*
X240208426Y-101900963D01*
X240064263Y-102045126D01*
X239950995Y-102214644D01*
X239872974Y-102403002D01*
X239833200Y-102602961D01*
X239833200Y-102806839D01*
X239872974Y-103006798D01*
X239932132Y-103149618D01*
X239867894Y-103304702D01*
X239828120Y-103504661D01*
X229603208Y-103504661D01*
X229670551Y-103258497D01*
X229997967Y-102572053D01*
X230441771Y-101954434D01*
X230987931Y-101425170D01*
X231619185Y-101000985D01*
X232315573Y-100695292D01*
X233061001Y-100516331D01*
X233094595Y-100513777D01*
X232975222Y-100593539D01*
X232801119Y-100767642D01*
X232664327Y-100972366D01*
X232570103Y-101199842D01*
X232522068Y-101441330D01*
X232522068Y-101687550D01*
X232570103Y-101929038D01*
X232664327Y-102156514D01*
X232801119Y-102361238D01*
X232975222Y-102535341D01*
X233179946Y-102672133D01*
X233407422Y-102766357D01*
X233648910Y-102814392D01*
X233895130Y-102814392D01*
X234136618Y-102766357D01*
X234364094Y-102672133D01*
X234568818Y-102535341D01*
X234742921Y-102361238D01*
X234879713Y-102156514D01*
X234973937Y-101929038D01*
X235021972Y-101687550D01*
X235021972Y-101441330D01*
X234973937Y-101199842D01*
X234879713Y-100972366D01*
X234742921Y-100767642D01*
X234568818Y-100593539D01*
X234383376Y-100469631D01*
X261616428Y-100481998D01*
G37*
X261616428Y-100481998D02*
X266400323Y-100531686D01*
X267192687Y-100604494D01*
X267925965Y-100811300D01*
X268609276Y-101148272D01*
X269219737Y-101604125D01*
X269736902Y-102163590D01*
X270143456Y-102807940D01*
X270425778Y-103515584D01*
X270576958Y-104275617D01*
X270600008Y-104715450D01*
X270615987Y-141888285D01*
X270543506Y-142677087D01*
X270336701Y-143410364D01*
X269999728Y-144093676D01*
X269543873Y-144704139D01*
X268984407Y-145221304D01*
X268340060Y-145627857D01*
X267632418Y-145910177D01*
X266872384Y-146061358D01*
X266435024Y-146084279D01*
X261653546Y-146050621D01*
X261650028Y-146050287D01*
X261621056Y-146050392D01*
X261592228Y-146050189D01*
X261588726Y-146050509D01*
X233594701Y-146151891D01*
X232806948Y-146079506D01*
X232073671Y-145872701D01*
X231390359Y-145535728D01*
X230779896Y-145079873D01*
X230262731Y-144520407D01*
X229856178Y-143876060D01*
X229573858Y-143168418D01*
X229422677Y-142408384D01*
X229399635Y-141968709D01*
X229399635Y-139692380D01*
X230467058Y-139692380D01*
X230496116Y-139987412D01*
X230582174Y-140271105D01*
X230721923Y-140532559D01*
X230909995Y-140761725D01*
X230975454Y-140815446D01*
X230865953Y-140873975D01*
X230731378Y-140984418D01*
X230620935Y-141118993D01*
X230538868Y-141272529D01*
X230488332Y-141439125D01*
X230471268Y-141612379D01*
X230471268Y-142852381D01*
X230488332Y-143025635D01*
X230538868Y-143192231D01*
X230620935Y-143345767D01*
X230731378Y-143480342D01*
X230865953Y-143590785D01*
X231019489Y-143672852D01*
X231186085Y-143723388D01*
X231359339Y-143740452D01*
X233059341Y-143740452D01*
X233232595Y-143723388D01*
X233399191Y-143672852D01*
X233552727Y-143590785D01*
X233558726Y-143585861D01*
X246411800Y-143585861D01*
X246411800Y-143789739D01*
X246451574Y-143989698D01*
X246529595Y-144178056D01*
X246642863Y-144347574D01*
X246787026Y-144491737D01*
X246956544Y-144605005D01*
X247144902Y-144683026D01*
X247344861Y-144722800D01*
X247369950Y-144722800D01*
X247388834Y-144817738D01*
X247466855Y-145006096D01*
X247580123Y-145175614D01*
X247724286Y-145319777D01*
X247893804Y-145433045D01*
X248082162Y-145511066D01*
X248282121Y-145550840D01*
X248485999Y-145550840D01*
X248685958Y-145511066D01*
X248874316Y-145433045D01*
X249043834Y-145319777D01*
X249187997Y-145175614D01*
X249301265Y-145006096D01*
X249379286Y-144817738D01*
X249419060Y-144617779D01*
X249419060Y-144413901D01*
X249379286Y-144213942D01*
X249332933Y-144102038D01*
X249374206Y-144002398D01*
X249413980Y-143802439D01*
X249413980Y-143598561D01*
X249374206Y-143398602D01*
X249296185Y-143210244D01*
X249182917Y-143040726D01*
X249038754Y-142896563D01*
X248869236Y-142783295D01*
X248680878Y-142705274D01*
X248480919Y-142665500D01*
X248277041Y-142665500D01*
X248077082Y-142705274D01*
X247928220Y-142766935D01*
X247748698Y-142692574D01*
X247548739Y-142652800D01*
X247344861Y-142652800D01*
X247144902Y-142692574D01*
X246956544Y-142770595D01*
X246787026Y-142883863D01*
X246642863Y-143028026D01*
X246529595Y-143197544D01*
X246451574Y-143385902D01*
X246411800Y-143585861D01*
X233558726Y-143585861D01*
X233687302Y-143480342D01*
X233797745Y-143345767D01*
X233879812Y-143192231D01*
X233930348Y-143025635D01*
X233947412Y-142852381D01*
X233947412Y-141612379D01*
X233930348Y-141439125D01*
X233879812Y-141272529D01*
X233797745Y-141118993D01*
X233687302Y-140984418D01*
X233552727Y-140873975D01*
X233443226Y-140815446D01*
X233508685Y-140761725D01*
X233696757Y-140532559D01*
X233836506Y-140271105D01*
X233922564Y-139987412D01*
X233951622Y-139692380D01*
X233950302Y-139678977D01*
X240776580Y-139678977D01*
X240776580Y-140020743D01*
X240843255Y-140355941D01*
X240974043Y-140671691D01*
X241163917Y-140955858D01*
X241405582Y-141197523D01*
X241689749Y-141387397D01*
X242005499Y-141518185D01*
X242340697Y-141584860D01*
X242682463Y-141584860D01*
X243017661Y-141518185D01*
X243333411Y-141387397D01*
X243355644Y-141372541D01*
X252043364Y-141372541D01*
X252053875Y-141565763D01*
X252223903Y-141636562D01*
X252404476Y-141672828D01*
X252588655Y-141673171D01*
X252769361Y-141637574D01*
X252939651Y-141567408D01*
X252942725Y-141565763D01*
X252953236Y-141372541D01*
X253243364Y-141372541D01*
X253253875Y-141565763D01*
X253423903Y-141636562D01*
X253604476Y-141672828D01*
X253788655Y-141673171D01*
X253969361Y-141637574D01*
X254139651Y-141567408D01*
X254142725Y-141565763D01*
X254153236Y-141372541D01*
X253698300Y-140917605D01*
X253243364Y-141372541D01*
X252953236Y-141372541D01*
X252498300Y-140917605D01*
X252043364Y-141372541D01*
X243355644Y-141372541D01*
X243617578Y-141197523D01*
X243859243Y-140955858D01*
X244049117Y-140671691D01*
X244179905Y-140355941D01*
X244246580Y-140020743D01*
X244246580Y-139678977D01*
X244179905Y-139343779D01*
X244049117Y-139028029D01*
X243859243Y-138743862D01*
X243617578Y-138502197D01*
X243333411Y-138312323D01*
X243017661Y-138181535D01*
X242682463Y-138114860D01*
X242340697Y-138114860D01*
X242005499Y-138181535D01*
X241689749Y-138312323D01*
X241405582Y-138502197D01*
X241163917Y-138743862D01*
X240974043Y-139028029D01*
X240843255Y-139343779D01*
X240776580Y-139678977D01*
X233950302Y-139678977D01*
X233922564Y-139397348D01*
X233836506Y-139113655D01*
X233696757Y-138852201D01*
X233508685Y-138623035D01*
X233279519Y-138434963D01*
X233251671Y-138420078D01*
X233388243Y-138330636D01*
X233599876Y-138122874D01*
X233766911Y-137877817D01*
X233882928Y-137604882D01*
X233900642Y-137512411D01*
X233779586Y-137279380D01*
X232336340Y-137279380D01*
X232336340Y-137299380D01*
X232082340Y-137299380D01*
X232082340Y-137279380D01*
X230639094Y-137279380D01*
X230518038Y-137512411D01*
X230535752Y-137604882D01*
X230651769Y-137877817D01*
X230818804Y-138122874D01*
X231030437Y-138330636D01*
X231167009Y-138420078D01*
X231139161Y-138434963D01*
X230909995Y-138623035D01*
X230721923Y-138852201D01*
X230582174Y-139113655D01*
X230496116Y-139397348D01*
X230467058Y-139692380D01*
X229399635Y-139692380D01*
X229399635Y-136792349D01*
X230518038Y-136792349D01*
X230639094Y-137025380D01*
X232082340Y-137025380D01*
X232082340Y-135801794D01*
X232336340Y-135801794D01*
X232336340Y-137025380D01*
X233779586Y-137025380D01*
X233900642Y-136792349D01*
X233882928Y-136699878D01*
X233766911Y-136426943D01*
X233599876Y-136181886D01*
X233388243Y-135974124D01*
X233140144Y-135811642D01*
X232865113Y-135700684D01*
X232573720Y-135645514D01*
X232336340Y-135801794D01*
X232082340Y-135801794D01*
X231844960Y-135645514D01*
X231553567Y-135700684D01*
X231278536Y-135811642D01*
X231030437Y-135974124D01*
X230818804Y-136181886D01*
X230651769Y-136426943D01*
X230535752Y-136699878D01*
X230518038Y-136792349D01*
X229399635Y-136792349D01*
X229399635Y-135134430D01*
X243242828Y-135134430D01*
X243242828Y-135380650D01*
X243290863Y-135622138D01*
X243385087Y-135849614D01*
X243521879Y-136054338D01*
X243695982Y-136228441D01*
X243900706Y-136365233D01*
X244128182Y-136459457D01*
X244349448Y-136503470D01*
X244208926Y-136597363D01*
X244064763Y-136741526D01*
X243951495Y-136911044D01*
X243873474Y-137099402D01*
X243833700Y-137299361D01*
X243833700Y-137503239D01*
X243873474Y-137703198D01*
X243951495Y-137891556D01*
X244064763Y-138061074D01*
X244208926Y-138205237D01*
X244378444Y-138318505D01*
X244566802Y-138396526D01*
X244656964Y-138414460D01*
X244621100Y-138594761D01*
X244621100Y-138798639D01*
X244660874Y-138998598D01*
X244738895Y-139186956D01*
X244852163Y-139356474D01*
X244996326Y-139500637D01*
X245165844Y-139613905D01*
X245354202Y-139691926D01*
X245554161Y-139731700D01*
X245758039Y-139731700D01*
X245957998Y-139691926D01*
X246126000Y-139622337D01*
X246294002Y-139691926D01*
X246493961Y-139731700D01*
X246697839Y-139731700D01*
X246897798Y-139691926D01*
X247059450Y-139624967D01*
X247221102Y-139691926D01*
X247421061Y-139731700D01*
X247624939Y-139731700D01*
X247641755Y-139728355D01*
X251563129Y-139728355D01*
X251598726Y-139909061D01*
X251668892Y-140079351D01*
X251670537Y-140082425D01*
X251818032Y-140090448D01*
X251744586Y-140163894D01*
X251768692Y-140188000D01*
X251744586Y-140212106D01*
X251818032Y-140285552D01*
X251670537Y-140293575D01*
X251599738Y-140463603D01*
X251563472Y-140644176D01*
X251563129Y-140828355D01*
X251598726Y-141009061D01*
X251668892Y-141179351D01*
X251670537Y-141182425D01*
X251863759Y-141192936D01*
X252318695Y-140738000D01*
X252304553Y-140723858D01*
X252455487Y-140572923D01*
X252541273Y-140573083D01*
X252692048Y-140723858D01*
X252677905Y-140738000D01*
X252763139Y-140823234D01*
X252763129Y-140828355D01*
X252798726Y-141009061D01*
X252868892Y-141179351D01*
X252870537Y-141182425D01*
X253063759Y-141192936D01*
X253098300Y-141158395D01*
X253132841Y-141192936D01*
X253326063Y-141182425D01*
X253396862Y-141012397D01*
X253433128Y-140831824D01*
X253433143Y-140823552D01*
X253518695Y-140738000D01*
X253504553Y-140723858D01*
X253655487Y-140572923D01*
X253741273Y-140573083D01*
X253892048Y-140723858D01*
X253877905Y-140738000D01*
X254332841Y-141192936D01*
X254526063Y-141182425D01*
X254596862Y-141012397D01*
X254633128Y-140831824D01*
X254633471Y-140647645D01*
X254597874Y-140466939D01*
X254527708Y-140296649D01*
X254526063Y-140293575D01*
X254378568Y-140285552D01*
X254452014Y-140212106D01*
X254427908Y-140188000D01*
X254452014Y-140163894D01*
X254378568Y-140090448D01*
X254526063Y-140082425D01*
X254596862Y-139912397D01*
X254633128Y-139731824D01*
X254633471Y-139547645D01*
X254597874Y-139366939D01*
X254527708Y-139196649D01*
X254526063Y-139193575D01*
X254332841Y-139183064D01*
X253877905Y-139638000D01*
X253892048Y-139652143D01*
X253741113Y-139803077D01*
X253655327Y-139802917D01*
X253504553Y-139652143D01*
X253518695Y-139638000D01*
X253433461Y-139552766D01*
X253433471Y-139547645D01*
X253397874Y-139366939D01*
X253327708Y-139196649D01*
X253327610Y-139196466D01*
X253423903Y-139236562D01*
X253489677Y-139249772D01*
X253698300Y-139458395D01*
X253906797Y-139249898D01*
X253969361Y-139237574D01*
X254139651Y-139167408D01*
X254142725Y-139165763D01*
X254151457Y-139005238D01*
X254153236Y-139003459D01*
X254152395Y-138988000D01*
X254153236Y-138972541D01*
X254151457Y-138970762D01*
X254142725Y-138810237D01*
X253972697Y-138739438D01*
X253906923Y-138726228D01*
X253698300Y-138517605D01*
X253489803Y-138726102D01*
X253427239Y-138738426D01*
X253327224Y-138779636D01*
X253396862Y-138612397D01*
X253433128Y-138431824D01*
X253433143Y-138423552D01*
X253518695Y-138338000D01*
X253877905Y-138338000D01*
X254332841Y-138792936D01*
X254526063Y-138782425D01*
X254596862Y-138612397D01*
X254633128Y-138431824D01*
X254633471Y-138247645D01*
X254597874Y-138066939D01*
X254590483Y-138049000D01*
X266291218Y-138049000D01*
X266320276Y-138344032D01*
X266406334Y-138627725D01*
X266546083Y-138889179D01*
X266734155Y-139118345D01*
X266963321Y-139306417D01*
X267224775Y-139446166D01*
X267508468Y-139532224D01*
X267729564Y-139554000D01*
X268337436Y-139554000D01*
X268558532Y-139532224D01*
X268842225Y-139446166D01*
X269103679Y-139306417D01*
X269332845Y-139118345D01*
X269520917Y-138889179D01*
X269660666Y-138627725D01*
X269746724Y-138344032D01*
X269775782Y-138049000D01*
X269746724Y-137753968D01*
X269660666Y-137470275D01*
X269520917Y-137208821D01*
X269334453Y-136981615D01*
X269377680Y-136968502D01*
X269487994Y-136909537D01*
X269584685Y-136830185D01*
X269664037Y-136733494D01*
X269723002Y-136623180D01*
X269759312Y-136503482D01*
X269771572Y-136379000D01*
X269768500Y-135794750D01*
X269609750Y-135636000D01*
X268160500Y-135636000D01*
X268160500Y-135656000D01*
X267906500Y-135656000D01*
X267906500Y-135636000D01*
X266457250Y-135636000D01*
X266298500Y-135794750D01*
X266295428Y-136379000D01*
X266307688Y-136503482D01*
X266343998Y-136623180D01*
X266402963Y-136733494D01*
X266482315Y-136830185D01*
X266579006Y-136909537D01*
X266689320Y-136968502D01*
X266732547Y-136981615D01*
X266546083Y-137208821D01*
X266406334Y-137470275D01*
X266320276Y-137753968D01*
X266291218Y-138049000D01*
X254590483Y-138049000D01*
X254527708Y-137896649D01*
X254526063Y-137893575D01*
X254332841Y-137883064D01*
X253877905Y-138338000D01*
X253518695Y-138338000D01*
X253433461Y-138252766D01*
X253433471Y-138247645D01*
X253397874Y-138066939D01*
X253377375Y-138017188D01*
X253423903Y-138036562D01*
X253604476Y-138072828D01*
X253612748Y-138072843D01*
X253698300Y-138158395D01*
X253783534Y-138073161D01*
X253788655Y-138073171D01*
X253969361Y-138037574D01*
X254139651Y-137967408D01*
X254142725Y-137965763D01*
X254153236Y-137772541D01*
X254118695Y-137738000D01*
X254153236Y-137703459D01*
X254142725Y-137510237D01*
X253972697Y-137439438D01*
X253792124Y-137403172D01*
X253783852Y-137403157D01*
X253698300Y-137317605D01*
X253613066Y-137402839D01*
X253607945Y-137402829D01*
X253427239Y-137438426D01*
X253377488Y-137458925D01*
X253396862Y-137412397D01*
X253433128Y-137231824D01*
X253433143Y-137223552D01*
X253518695Y-137138000D01*
X253877905Y-137138000D01*
X254332841Y-137592936D01*
X254526063Y-137582425D01*
X254596862Y-137412397D01*
X254633128Y-137231824D01*
X254633471Y-137047645D01*
X254597874Y-136866939D01*
X254527708Y-136696649D01*
X254526063Y-136693575D01*
X254332841Y-136683064D01*
X253877905Y-137138000D01*
X253518695Y-137138000D01*
X253433461Y-137052766D01*
X253433471Y-137047645D01*
X253397874Y-136866939D01*
X253327708Y-136696649D01*
X253326063Y-136693575D01*
X253132841Y-136683064D01*
X253098300Y-136717605D01*
X253063759Y-136683064D01*
X252870537Y-136693575D01*
X252799738Y-136863603D01*
X252763472Y-137044176D01*
X252763457Y-137052448D01*
X252677905Y-137138000D01*
X252763139Y-137223234D01*
X252763129Y-137228355D01*
X252798726Y-137409061D01*
X252819225Y-137458812D01*
X252772697Y-137439438D01*
X252592124Y-137403172D01*
X252583852Y-137403157D01*
X252498300Y-137317605D01*
X252413066Y-137402839D01*
X252407945Y-137402829D01*
X252227239Y-137438426D01*
X252056949Y-137508592D01*
X252053875Y-137510237D01*
X252043364Y-137703459D01*
X252077905Y-137738000D01*
X252043364Y-137772541D01*
X252053875Y-137965763D01*
X252223903Y-138036562D01*
X252404476Y-138072828D01*
X252412748Y-138072843D01*
X252498300Y-138158395D01*
X252583534Y-138073161D01*
X252588655Y-138073171D01*
X252769361Y-138037574D01*
X252819112Y-138017075D01*
X252799738Y-138063603D01*
X252763472Y-138244176D01*
X252763457Y-138252448D01*
X252677905Y-138338000D01*
X252763139Y-138423234D01*
X252763129Y-138428355D01*
X252798726Y-138609061D01*
X252868892Y-138779351D01*
X252868990Y-138779534D01*
X252772697Y-138739438D01*
X252706923Y-138726228D01*
X252498300Y-138517605D01*
X252289803Y-138726102D01*
X252227239Y-138738426D01*
X252056949Y-138808592D01*
X252053875Y-138810237D01*
X252045143Y-138970762D01*
X252043364Y-138972541D01*
X252044205Y-138988000D01*
X252043364Y-139003459D01*
X252045143Y-139005238D01*
X252053875Y-139165763D01*
X252223903Y-139236562D01*
X252289677Y-139249772D01*
X252498300Y-139458395D01*
X252706797Y-139249898D01*
X252769361Y-139237574D01*
X252869376Y-139196364D01*
X252799738Y-139363603D01*
X252763472Y-139544176D01*
X252763457Y-139552448D01*
X252677905Y-139638000D01*
X252692048Y-139652143D01*
X252541113Y-139803077D01*
X252455327Y-139802917D01*
X252304553Y-139652143D01*
X252318695Y-139638000D01*
X251863759Y-139183064D01*
X251670537Y-139193575D01*
X251599738Y-139363603D01*
X251563472Y-139544176D01*
X251563129Y-139728355D01*
X247641755Y-139728355D01*
X247824898Y-139691926D01*
X248013256Y-139613905D01*
X248182774Y-139500637D01*
X248326937Y-139356474D01*
X248440205Y-139186956D01*
X248518226Y-138998598D01*
X248558000Y-138798639D01*
X248558000Y-138594761D01*
X248524901Y-138428355D01*
X251563129Y-138428355D01*
X251598726Y-138609061D01*
X251668892Y-138779351D01*
X251670537Y-138782425D01*
X251863759Y-138792936D01*
X252318695Y-138338000D01*
X251863759Y-137883064D01*
X251670537Y-137893575D01*
X251599738Y-138063603D01*
X251563472Y-138244176D01*
X251563129Y-138428355D01*
X248524901Y-138428355D01*
X248518226Y-138394802D01*
X248440205Y-138206444D01*
X248326937Y-138036926D01*
X248182774Y-137892763D01*
X248013256Y-137779495D01*
X247824898Y-137701474D01*
X247624939Y-137661700D01*
X247421061Y-137661700D01*
X247221102Y-137701474D01*
X247059450Y-137768433D01*
X246897798Y-137701474D01*
X246697839Y-137661700D01*
X246493961Y-137661700D01*
X246294002Y-137701474D01*
X246126000Y-137771063D01*
X245957998Y-137701474D01*
X245867836Y-137683540D01*
X245903700Y-137503239D01*
X245903700Y-137299361D01*
X245889577Y-137228355D01*
X251563129Y-137228355D01*
X251598726Y-137409061D01*
X251668892Y-137579351D01*
X251670537Y-137582425D01*
X251863759Y-137592936D01*
X252318695Y-137138000D01*
X251863759Y-136683064D01*
X251670537Y-136693575D01*
X251599738Y-136863603D01*
X251563472Y-137044176D01*
X251563129Y-137228355D01*
X245889577Y-137228355D01*
X245863926Y-137099402D01*
X245785905Y-136911044D01*
X245672637Y-136741526D01*
X245528474Y-136597363D01*
X245387937Y-136503459D01*
X252043364Y-136503459D01*
X252498300Y-136958395D01*
X252953236Y-136503459D01*
X253243364Y-136503459D01*
X253698300Y-136958395D01*
X254153236Y-136503459D01*
X254142725Y-136310237D01*
X253972697Y-136239438D01*
X253792124Y-136203172D01*
X253607945Y-136202829D01*
X253427239Y-136238426D01*
X253256949Y-136308592D01*
X253253875Y-136310237D01*
X253243364Y-136503459D01*
X252953236Y-136503459D01*
X252942725Y-136310237D01*
X252772697Y-136239438D01*
X252592124Y-136203172D01*
X252407945Y-136202829D01*
X252227239Y-136238426D01*
X252056949Y-136308592D01*
X252053875Y-136310237D01*
X252043364Y-136503459D01*
X245387937Y-136503459D01*
X245358956Y-136484095D01*
X245170598Y-136406074D01*
X245046060Y-136381302D01*
X245084854Y-136365233D01*
X245289578Y-136228441D01*
X245463681Y-136054338D01*
X245600473Y-135849614D01*
X245694697Y-135622138D01*
X245742732Y-135380650D01*
X245742732Y-135134430D01*
X245694697Y-134892942D01*
X245600473Y-134665466D01*
X245582790Y-134639000D01*
X266295428Y-134639000D01*
X266298500Y-135223250D01*
X266457250Y-135382000D01*
X267906500Y-135382000D01*
X267906500Y-134162750D01*
X268160500Y-134162750D01*
X268160500Y-135382000D01*
X269609750Y-135382000D01*
X269768500Y-135223250D01*
X269771572Y-134639000D01*
X269759312Y-134514518D01*
X269723002Y-134394820D01*
X269664037Y-134284506D01*
X269584685Y-134187815D01*
X269487994Y-134108463D01*
X269377680Y-134049498D01*
X269257982Y-134013188D01*
X269133500Y-134000928D01*
X268319250Y-134004000D01*
X268160500Y-134162750D01*
X267906500Y-134162750D01*
X267747750Y-134004000D01*
X266933500Y-134000928D01*
X266809018Y-134013188D01*
X266689320Y-134049498D01*
X266579006Y-134108463D01*
X266482315Y-134187815D01*
X266402963Y-134284506D01*
X266343998Y-134394820D01*
X266307688Y-134514518D01*
X266295428Y-134639000D01*
X245582790Y-134639000D01*
X245463681Y-134460742D01*
X245289578Y-134286639D01*
X245084854Y-134149847D01*
X244857378Y-134055623D01*
X244615890Y-134007588D01*
X244369670Y-134007588D01*
X244128182Y-134055623D01*
X243900706Y-134149847D01*
X243695982Y-134286639D01*
X243521879Y-134460742D01*
X243385087Y-134665466D01*
X243290863Y-134892942D01*
X243242828Y-135134430D01*
X229399635Y-135134430D01*
X229399635Y-130817620D01*
X230472138Y-130817620D01*
X230501196Y-131112652D01*
X230587254Y-131396345D01*
X230727003Y-131657799D01*
X230915075Y-131886965D01*
X230980534Y-131940686D01*
X230871033Y-131999215D01*
X230736458Y-132109658D01*
X230626015Y-132244233D01*
X230543948Y-132397769D01*
X230493412Y-132564365D01*
X230476348Y-132737619D01*
X230476348Y-133977621D01*
X230493412Y-134150875D01*
X230543948Y-134317471D01*
X230626015Y-134471007D01*
X230736458Y-134605582D01*
X230871033Y-134716025D01*
X231024569Y-134798092D01*
X231191165Y-134848628D01*
X231364419Y-134865692D01*
X233064421Y-134865692D01*
X233237675Y-134848628D01*
X233404271Y-134798092D01*
X233557807Y-134716025D01*
X233692382Y-134605582D01*
X233802825Y-134471007D01*
X233884892Y-134317471D01*
X233935428Y-134150875D01*
X233952492Y-133977621D01*
X233952492Y-132737619D01*
X233935428Y-132564365D01*
X233884892Y-132397769D01*
X233802825Y-132244233D01*
X233692382Y-132109658D01*
X233557807Y-131999215D01*
X233448306Y-131940686D01*
X233513765Y-131886965D01*
X233701837Y-131657799D01*
X233841586Y-131396345D01*
X233927644Y-131112652D01*
X233956702Y-130817620D01*
X233927644Y-130522588D01*
X233841586Y-130238895D01*
X233701837Y-129977441D01*
X233592703Y-129844461D01*
X244214700Y-129844461D01*
X244214700Y-130048339D01*
X244254474Y-130248298D01*
X244332495Y-130436656D01*
X244445763Y-130606174D01*
X244589926Y-130750337D01*
X244759444Y-130863605D01*
X244947802Y-130941626D01*
X245147761Y-130981400D01*
X245351639Y-130981400D01*
X245551598Y-130941626D01*
X245739956Y-130863605D01*
X245909474Y-130750337D01*
X246053637Y-130606174D01*
X246166905Y-130436656D01*
X246244926Y-130248298D01*
X246284700Y-130048339D01*
X246284700Y-129844461D01*
X246244926Y-129644502D01*
X246166905Y-129456144D01*
X246053637Y-129286626D01*
X245909474Y-129142463D01*
X245739956Y-129029195D01*
X245551598Y-128951174D01*
X245351639Y-128911400D01*
X245147761Y-128911400D01*
X244947802Y-128951174D01*
X244759444Y-129029195D01*
X244589926Y-129142463D01*
X244445763Y-129286626D01*
X244332495Y-129456144D01*
X244254474Y-129644502D01*
X244214700Y-129844461D01*
X233592703Y-129844461D01*
X233513765Y-129748275D01*
X233284599Y-129560203D01*
X233256751Y-129545318D01*
X233393323Y-129455876D01*
X233604956Y-129248114D01*
X233771991Y-129003057D01*
X233840664Y-128841500D01*
X266291218Y-128841500D01*
X266320276Y-129136532D01*
X266406334Y-129420225D01*
X266546083Y-129681679D01*
X266734155Y-129910845D01*
X266963321Y-130098917D01*
X267224775Y-130238666D01*
X267508468Y-130324724D01*
X267729564Y-130346500D01*
X268337436Y-130346500D01*
X268558532Y-130324724D01*
X268842225Y-130238666D01*
X269103679Y-130098917D01*
X269332845Y-129910845D01*
X269520917Y-129681679D01*
X269660666Y-129420225D01*
X269746724Y-129136532D01*
X269775782Y-128841500D01*
X269746724Y-128546468D01*
X269660666Y-128262775D01*
X269520917Y-128001321D01*
X269334453Y-127774115D01*
X269377680Y-127761002D01*
X269487994Y-127702037D01*
X269584685Y-127622685D01*
X269664037Y-127525994D01*
X269723002Y-127415680D01*
X269759312Y-127295982D01*
X269771572Y-127171500D01*
X269768500Y-126587250D01*
X269609750Y-126428500D01*
X268160500Y-126428500D01*
X268160500Y-126448500D01*
X267906500Y-126448500D01*
X267906500Y-126428500D01*
X266457250Y-126428500D01*
X266298500Y-126587250D01*
X266295428Y-127171500D01*
X266307688Y-127295982D01*
X266343998Y-127415680D01*
X266402963Y-127525994D01*
X266482315Y-127622685D01*
X266579006Y-127702037D01*
X266689320Y-127761002D01*
X266732547Y-127774115D01*
X266546083Y-128001321D01*
X266406334Y-128262775D01*
X266320276Y-128546468D01*
X266291218Y-128841500D01*
X233840664Y-128841500D01*
X233888008Y-128730122D01*
X233905722Y-128637651D01*
X233784666Y-128404620D01*
X232341420Y-128404620D01*
X232341420Y-128424620D01*
X232087420Y-128424620D01*
X232087420Y-128404620D01*
X230644174Y-128404620D01*
X230523118Y-128637651D01*
X230540832Y-128730122D01*
X230656849Y-129003057D01*
X230823884Y-129248114D01*
X231035517Y-129455876D01*
X231172089Y-129545318D01*
X231144241Y-129560203D01*
X230915075Y-129748275D01*
X230727003Y-129977441D01*
X230587254Y-130238895D01*
X230501196Y-130522588D01*
X230472138Y-130817620D01*
X229399635Y-130817620D01*
X229399635Y-127917589D01*
X230523118Y-127917589D01*
X230644174Y-128150620D01*
X232087420Y-128150620D01*
X232087420Y-126927034D01*
X232341420Y-126927034D01*
X232341420Y-128150620D01*
X233784666Y-128150620D01*
X233905722Y-127917589D01*
X233888008Y-127825118D01*
X233771991Y-127552183D01*
X233604956Y-127307126D01*
X233393323Y-127099364D01*
X233145224Y-126936882D01*
X232870193Y-126825924D01*
X232578800Y-126770754D01*
X232341420Y-126927034D01*
X232087420Y-126927034D01*
X231850040Y-126770754D01*
X231558647Y-126825924D01*
X231283616Y-126936882D01*
X231035517Y-127099364D01*
X230823884Y-127307126D01*
X230656849Y-127552183D01*
X230540832Y-127825118D01*
X230523118Y-127917589D01*
X229399635Y-127917589D01*
X229399635Y-121886980D01*
X230477218Y-121886980D01*
X230506276Y-122182012D01*
X230592334Y-122465705D01*
X230732083Y-122727159D01*
X230920155Y-122956325D01*
X230985614Y-123010046D01*
X230876113Y-123068575D01*
X230741538Y-123179018D01*
X230631095Y-123313593D01*
X230549028Y-123467129D01*
X230498492Y-123633725D01*
X230481428Y-123806979D01*
X230481428Y-125046981D01*
X230498492Y-125220235D01*
X230549028Y-125386831D01*
X230631095Y-125540367D01*
X230741538Y-125674942D01*
X230876113Y-125785385D01*
X231029649Y-125867452D01*
X231196245Y-125917988D01*
X231369499Y-125935052D01*
X233069501Y-125935052D01*
X233242755Y-125917988D01*
X233409351Y-125867452D01*
X233562887Y-125785385D01*
X233697462Y-125674942D01*
X233713417Y-125655500D01*
X243775128Y-125655500D01*
X243775128Y-127455500D01*
X243787388Y-127579982D01*
X243823698Y-127699680D01*
X243882663Y-127809994D01*
X243962015Y-127906685D01*
X244058706Y-127986037D01*
X244169020Y-128045002D01*
X244288718Y-128081312D01*
X244413200Y-128093572D01*
X246213200Y-128093572D01*
X246337682Y-128081312D01*
X246457380Y-128045002D01*
X246567694Y-127986037D01*
X246664385Y-127906685D01*
X246743737Y-127809994D01*
X246802702Y-127699680D01*
X246839012Y-127579982D01*
X246851272Y-127455500D01*
X246851272Y-125655500D01*
X246839012Y-125531018D01*
X246808824Y-125431500D01*
X266295428Y-125431500D01*
X266298500Y-126015750D01*
X266457250Y-126174500D01*
X267906500Y-126174500D01*
X267906500Y-124955250D01*
X268160500Y-124955250D01*
X268160500Y-126174500D01*
X269609750Y-126174500D01*
X269768500Y-126015750D01*
X269771572Y-125431500D01*
X269759312Y-125307018D01*
X269723002Y-125187320D01*
X269664037Y-125077006D01*
X269584685Y-124980315D01*
X269487994Y-124900963D01*
X269377680Y-124841998D01*
X269257982Y-124805688D01*
X269133500Y-124793428D01*
X268319250Y-124796500D01*
X268160500Y-124955250D01*
X267906500Y-124955250D01*
X267747750Y-124796500D01*
X266933500Y-124793428D01*
X266809018Y-124805688D01*
X266689320Y-124841998D01*
X266579006Y-124900963D01*
X266482315Y-124980315D01*
X266402963Y-125077006D01*
X266343998Y-125187320D01*
X266307688Y-125307018D01*
X266295428Y-125431500D01*
X246808824Y-125431500D01*
X246802702Y-125411320D01*
X246743737Y-125301006D01*
X246664385Y-125204315D01*
X246567694Y-125124963D01*
X246457380Y-125065998D01*
X246439073Y-125060444D01*
X246505512Y-124994005D01*
X246673499Y-124742595D01*
X246789211Y-124463243D01*
X246848200Y-124166684D01*
X246848200Y-123864316D01*
X246789211Y-123567757D01*
X246673499Y-123288405D01*
X246505512Y-123036995D01*
X246291705Y-122823188D01*
X246040295Y-122655201D01*
X245760943Y-122539489D01*
X245464384Y-122480500D01*
X245162016Y-122480500D01*
X244865457Y-122539489D01*
X244586105Y-122655201D01*
X244334695Y-122823188D01*
X244120888Y-123036995D01*
X243952901Y-123288405D01*
X243837189Y-123567757D01*
X243778200Y-123864316D01*
X243778200Y-124166684D01*
X243837189Y-124463243D01*
X243952901Y-124742595D01*
X244120888Y-124994005D01*
X244187327Y-125060444D01*
X244169020Y-125065998D01*
X244058706Y-125124963D01*
X243962015Y-125204315D01*
X243882663Y-125301006D01*
X243823698Y-125411320D01*
X243787388Y-125531018D01*
X243775128Y-125655500D01*
X233713417Y-125655500D01*
X233807905Y-125540367D01*
X233889972Y-125386831D01*
X233940508Y-125220235D01*
X233957572Y-125046981D01*
X233957572Y-123806979D01*
X233940508Y-123633725D01*
X233889972Y-123467129D01*
X233807905Y-123313593D01*
X233697462Y-123179018D01*
X233562887Y-123068575D01*
X233453386Y-123010046D01*
X233518845Y-122956325D01*
X233706917Y-122727159D01*
X233846666Y-122465705D01*
X233932724Y-122182012D01*
X233945138Y-122055970D01*
X262290288Y-122055970D01*
X262290288Y-122302190D01*
X262338323Y-122543678D01*
X262432547Y-122771154D01*
X262569339Y-122975878D01*
X262743442Y-123149981D01*
X262948166Y-123286773D01*
X263175642Y-123380997D01*
X263417130Y-123429032D01*
X263663350Y-123429032D01*
X263904838Y-123380997D01*
X264132314Y-123286773D01*
X264337038Y-123149981D01*
X264511141Y-122975878D01*
X264647933Y-122771154D01*
X264742157Y-122543678D01*
X264790192Y-122302190D01*
X264790192Y-122055970D01*
X264742157Y-121814482D01*
X264736124Y-121799917D01*
X266590600Y-121799917D01*
X266590600Y-122141683D01*
X266657275Y-122476881D01*
X266788063Y-122792631D01*
X266977937Y-123076798D01*
X267219602Y-123318463D01*
X267503769Y-123508337D01*
X267819519Y-123639125D01*
X268154717Y-123705800D01*
X268496483Y-123705800D01*
X268831681Y-123639125D01*
X269147431Y-123508337D01*
X269431598Y-123318463D01*
X269673263Y-123076798D01*
X269863137Y-122792631D01*
X269993925Y-122476881D01*
X270060600Y-122141683D01*
X270060600Y-121799917D01*
X269993925Y-121464719D01*
X269863137Y-121148969D01*
X269673263Y-120864802D01*
X269431598Y-120623137D01*
X269147431Y-120433263D01*
X268831681Y-120302475D01*
X268496483Y-120235800D01*
X268154717Y-120235800D01*
X267819519Y-120302475D01*
X267503769Y-120433263D01*
X267219602Y-120623137D01*
X266977937Y-120864802D01*
X266788063Y-121148969D01*
X266657275Y-121464719D01*
X266590600Y-121799917D01*
X264736124Y-121799917D01*
X264647933Y-121587006D01*
X264511141Y-121382282D01*
X264337038Y-121208179D01*
X264132314Y-121071387D01*
X263904838Y-120977163D01*
X263663350Y-120929128D01*
X263417130Y-120929128D01*
X263175642Y-120977163D01*
X262948166Y-121071387D01*
X262743442Y-121208179D01*
X262569339Y-121382282D01*
X262432547Y-121587006D01*
X262338323Y-121814482D01*
X262290288Y-122055970D01*
X233945138Y-122055970D01*
X233961782Y-121886980D01*
X233932724Y-121591948D01*
X233846666Y-121308255D01*
X233706917Y-121046801D01*
X233518845Y-120817635D01*
X233289679Y-120629563D01*
X233261831Y-120614678D01*
X233398403Y-120525236D01*
X233610036Y-120317474D01*
X233651964Y-120255961D01*
X263937800Y-120255961D01*
X263937800Y-120459839D01*
X263977574Y-120659798D01*
X264055595Y-120848156D01*
X264168863Y-121017674D01*
X264313026Y-121161837D01*
X264482544Y-121275105D01*
X264670902Y-121353126D01*
X264870861Y-121392900D01*
X265074739Y-121392900D01*
X265274698Y-121353126D01*
X265463056Y-121275105D01*
X265632574Y-121161837D01*
X265776737Y-121017674D01*
X265890005Y-120848156D01*
X265968026Y-120659798D01*
X266007800Y-120459839D01*
X266007800Y-120271707D01*
X266153561Y-120300700D01*
X266357439Y-120300700D01*
X266557398Y-120260926D01*
X266745756Y-120182905D01*
X266915274Y-120069637D01*
X267059437Y-119925474D01*
X267172705Y-119755956D01*
X267250726Y-119567598D01*
X267290500Y-119367639D01*
X267290500Y-119163761D01*
X267250726Y-118963802D01*
X267172705Y-118775444D01*
X267059437Y-118605926D01*
X266915274Y-118461763D01*
X266745756Y-118348495D01*
X266557398Y-118270474D01*
X266357439Y-118230700D01*
X266153561Y-118230700D01*
X265953602Y-118270474D01*
X265765244Y-118348495D01*
X265595726Y-118461763D01*
X265451563Y-118605926D01*
X265338295Y-118775444D01*
X265260274Y-118963802D01*
X265220500Y-119163761D01*
X265220500Y-119351893D01*
X265074739Y-119322900D01*
X264870861Y-119322900D01*
X264670902Y-119362674D01*
X264482544Y-119440695D01*
X264313026Y-119553963D01*
X264168863Y-119698126D01*
X264055595Y-119867644D01*
X263977574Y-120056002D01*
X263937800Y-120255961D01*
X233651964Y-120255961D01*
X233777071Y-120072417D01*
X233893088Y-119799482D01*
X233910802Y-119707011D01*
X233789746Y-119473980D01*
X232346500Y-119473980D01*
X232346500Y-119493980D01*
X232092500Y-119493980D01*
X232092500Y-119473980D01*
X230649254Y-119473980D01*
X230528198Y-119707011D01*
X230545912Y-119799482D01*
X230661929Y-120072417D01*
X230828964Y-120317474D01*
X231040597Y-120525236D01*
X231177169Y-120614678D01*
X231149321Y-120629563D01*
X230920155Y-120817635D01*
X230732083Y-121046801D01*
X230592334Y-121308255D01*
X230506276Y-121591948D01*
X230477218Y-121886980D01*
X229399635Y-121886980D01*
X229399635Y-118986949D01*
X230528198Y-118986949D01*
X230649254Y-119219980D01*
X232092500Y-119219980D01*
X232092500Y-117996394D01*
X232346500Y-117996394D01*
X232346500Y-119219980D01*
X233789746Y-119219980D01*
X233910802Y-118986949D01*
X233893088Y-118894478D01*
X233777071Y-118621543D01*
X233610036Y-118376486D01*
X233398403Y-118168724D01*
X233150304Y-118006242D01*
X232875273Y-117895284D01*
X232583880Y-117840114D01*
X232346500Y-117996394D01*
X232092500Y-117996394D01*
X231855120Y-117840114D01*
X231563727Y-117895284D01*
X231288696Y-118006242D01*
X231040597Y-118168724D01*
X230828964Y-118376486D01*
X230661929Y-118621543D01*
X230545912Y-118894478D01*
X230528198Y-118986949D01*
X229399635Y-118986949D01*
X229399635Y-115183333D01*
X231076352Y-115183333D01*
X231141877Y-115422200D01*
X231388856Y-115538100D01*
X231653700Y-115603590D01*
X231926232Y-115616152D01*
X232195978Y-115575305D01*
X232452572Y-115482617D01*
X232565603Y-115422200D01*
X232631128Y-115183333D01*
X231853740Y-114405945D01*
X231076352Y-115183333D01*
X229399635Y-115183333D01*
X229399635Y-114298832D01*
X230463928Y-114298832D01*
X230504775Y-114568578D01*
X230597463Y-114825172D01*
X230657880Y-114938203D01*
X230896747Y-115003728D01*
X231674135Y-114226340D01*
X232033345Y-114226340D01*
X232810733Y-115003728D01*
X233049600Y-114938203D01*
X233165500Y-114691224D01*
X233230990Y-114426380D01*
X233243552Y-114153848D01*
X233202705Y-113884102D01*
X233110017Y-113627508D01*
X233049600Y-113514477D01*
X232810733Y-113448952D01*
X232033345Y-114226340D01*
X231674135Y-114226340D01*
X230896747Y-113448952D01*
X230657880Y-113514477D01*
X230541980Y-113761456D01*
X230476490Y-114026300D01*
X230463928Y-114298832D01*
X229399635Y-114298832D01*
X229399635Y-105856340D01*
X230465668Y-105856340D01*
X230465668Y-107356340D01*
X230477928Y-107480822D01*
X230514238Y-107600520D01*
X230573203Y-107710834D01*
X230652555Y-107807525D01*
X230749246Y-107886877D01*
X230859560Y-107945842D01*
X230979258Y-107982152D01*
X231087223Y-107992785D01*
X230970854Y-108070541D01*
X230777941Y-108263454D01*
X230626369Y-108490297D01*
X230521965Y-108742351D01*
X230468740Y-109009929D01*
X230468740Y-109282751D01*
X230521965Y-109550329D01*
X230626369Y-109802383D01*
X230777941Y-110029226D01*
X230970854Y-110222139D01*
X231197697Y-110373711D01*
X231300613Y-110416340D01*
X231197697Y-110458969D01*
X230970854Y-110610541D01*
X230777941Y-110803454D01*
X230626369Y-111030297D01*
X230521965Y-111282351D01*
X230468740Y-111549929D01*
X230468740Y-111822751D01*
X230521965Y-112090329D01*
X230626369Y-112342383D01*
X230777941Y-112569226D01*
X230970854Y-112762139D01*
X231197697Y-112913711D01*
X231297019Y-112954851D01*
X231254908Y-112970063D01*
X231141877Y-113030480D01*
X231076352Y-113269347D01*
X231853740Y-114046735D01*
X232631128Y-113269347D01*
X232565603Y-113030480D01*
X232407263Y-112956176D01*
X232509783Y-112913711D01*
X232736626Y-112762139D01*
X232929539Y-112569226D01*
X233081111Y-112342383D01*
X233185515Y-112090329D01*
X233238740Y-111822751D01*
X233238740Y-111549929D01*
X233219830Y-111454861D01*
X240836500Y-111454861D01*
X240836500Y-111658739D01*
X240876274Y-111858698D01*
X240954295Y-112047056D01*
X241067563Y-112216574D01*
X241211726Y-112360737D01*
X241381244Y-112474005D01*
X241569602Y-112552026D01*
X241769561Y-112591800D01*
X241973439Y-112591800D01*
X242173398Y-112552026D01*
X242361756Y-112474005D01*
X242531274Y-112360737D01*
X242675437Y-112216574D01*
X242788705Y-112047056D01*
X242866726Y-111858698D01*
X242906500Y-111658739D01*
X242906500Y-111454861D01*
X242866726Y-111254902D01*
X242788705Y-111066544D01*
X242675437Y-110897026D01*
X242531274Y-110752863D01*
X242361756Y-110639595D01*
X242173398Y-110561574D01*
X241973439Y-110521800D01*
X241769561Y-110521800D01*
X241569602Y-110561574D01*
X241381244Y-110639595D01*
X241211726Y-110752863D01*
X241067563Y-110897026D01*
X240954295Y-111066544D01*
X240876274Y-111254902D01*
X240836500Y-111454861D01*
X233219830Y-111454861D01*
X233185515Y-111282351D01*
X233081111Y-111030297D01*
X232929539Y-110803454D01*
X232736626Y-110610541D01*
X232509783Y-110458969D01*
X232406867Y-110416340D01*
X232509783Y-110373711D01*
X232736626Y-110222139D01*
X232929539Y-110029226D01*
X233019633Y-109894390D01*
X264750524Y-109894390D01*
X264795175Y-110041599D01*
X264920359Y-110304420D01*
X265094412Y-110537769D01*
X265310645Y-110732678D01*
X265560748Y-110881657D01*
X265835109Y-110978981D01*
X266065000Y-110858314D01*
X266065000Y-109664500D01*
X266319000Y-109664500D01*
X266319000Y-110858314D01*
X266548891Y-110978981D01*
X266823252Y-110881657D01*
X267073355Y-110732678D01*
X267289588Y-110537769D01*
X267463641Y-110304420D01*
X267588825Y-110041599D01*
X267633476Y-109894390D01*
X267512155Y-109664500D01*
X266319000Y-109664500D01*
X266065000Y-109664500D01*
X264871845Y-109664500D01*
X264750524Y-109894390D01*
X233019633Y-109894390D01*
X233081111Y-109802383D01*
X233185515Y-109550329D01*
X233238740Y-109282751D01*
X233238740Y-109009929D01*
X233185515Y-108742351D01*
X233081111Y-108490297D01*
X232929539Y-108263454D01*
X232736626Y-108070541D01*
X232620257Y-107992785D01*
X232728222Y-107982152D01*
X232847920Y-107945842D01*
X232958234Y-107886877D01*
X233054925Y-107807525D01*
X233134277Y-107710834D01*
X233193242Y-107600520D01*
X233229552Y-107480822D01*
X233241812Y-107356340D01*
X233241812Y-105856340D01*
X233229552Y-105731858D01*
X233193242Y-105612160D01*
X233134277Y-105501846D01*
X233054925Y-105405155D01*
X232958234Y-105325803D01*
X232847920Y-105266838D01*
X232728222Y-105230528D01*
X232603740Y-105218268D01*
X231103740Y-105218268D01*
X230979258Y-105230528D01*
X230859560Y-105266838D01*
X230749246Y-105325803D01*
X230652555Y-105405155D01*
X230573203Y-105501846D01*
X230514238Y-105612160D01*
X230477928Y-105731858D01*
X230465668Y-105856340D01*
X229399635Y-105856340D01*
X229399635Y-104778992D01*
X229469865Y-103992080D01*
X229603208Y-103504661D01*
X239828120Y-103504661D01*
X239828120Y-103708539D01*
X239867894Y-103908498D01*
X239945915Y-104096856D01*
X240059183Y-104266374D01*
X240203346Y-104410537D01*
X240372864Y-104523805D01*
X240561222Y-104601826D01*
X240761181Y-104641600D01*
X240965059Y-104641600D01*
X241165018Y-104601826D01*
X241353376Y-104523805D01*
X241522894Y-104410537D01*
X241667057Y-104266374D01*
X241780325Y-104096856D01*
X241858346Y-103908498D01*
X241898120Y-103708539D01*
X241898120Y-103607500D01*
X264703928Y-103607500D01*
X264703928Y-105307500D01*
X264716188Y-105431982D01*
X264752498Y-105551680D01*
X264811463Y-105661994D01*
X264890815Y-105758685D01*
X264987506Y-105838037D01*
X265097820Y-105897002D01*
X265170380Y-105919013D01*
X265038525Y-106050868D01*
X264876010Y-106294089D01*
X264764068Y-106564342D01*
X264707000Y-106851240D01*
X264707000Y-107143760D01*
X264764068Y-107430658D01*
X264876010Y-107700911D01*
X265038525Y-107944132D01*
X265245368Y-108150975D01*
X265427534Y-108272695D01*
X265310645Y-108342322D01*
X265094412Y-108537231D01*
X264920359Y-108770580D01*
X264795175Y-109033401D01*
X264750524Y-109180610D01*
X264871845Y-109410500D01*
X266065000Y-109410500D01*
X266065000Y-109390500D01*
X266319000Y-109390500D01*
X266319000Y-109410500D01*
X267512155Y-109410500D01*
X267633476Y-109180610D01*
X267588825Y-109033401D01*
X267463641Y-108770580D01*
X267289588Y-108537231D01*
X267073355Y-108342322D01*
X266956466Y-108272695D01*
X267138632Y-108150975D01*
X267345475Y-107944132D01*
X267507990Y-107700911D01*
X267619932Y-107430658D01*
X267677000Y-107143760D01*
X267677000Y-106851240D01*
X267619932Y-106564342D01*
X267507990Y-106294089D01*
X267345475Y-106050868D01*
X267213620Y-105919013D01*
X267286180Y-105897002D01*
X267396494Y-105838037D01*
X267493185Y-105758685D01*
X267572537Y-105661994D01*
X267631502Y-105551680D01*
X267667812Y-105431982D01*
X267680072Y-105307500D01*
X267680072Y-103607500D01*
X267667812Y-103483018D01*
X267631502Y-103363320D01*
X267572537Y-103253006D01*
X267493185Y-103156315D01*
X267396494Y-103076963D01*
X267286180Y-103017998D01*
X267166482Y-102981688D01*
X267042000Y-102969428D01*
X265342000Y-102969428D01*
X265217518Y-102981688D01*
X265097820Y-103017998D01*
X264987506Y-103076963D01*
X264890815Y-103156315D01*
X264811463Y-103253006D01*
X264752498Y-103363320D01*
X264716188Y-103483018D01*
X264703928Y-103607500D01*
X241898120Y-103607500D01*
X241898120Y-103504661D01*
X241858346Y-103304702D01*
X241799188Y-103161882D01*
X241863426Y-103006798D01*
X241903200Y-102806839D01*
X241903200Y-102602961D01*
X241863426Y-102403002D01*
X241785405Y-102214644D01*
X241672137Y-102045126D01*
X241527974Y-101900963D01*
X241358456Y-101787695D01*
X241170098Y-101709674D01*
X240970139Y-101669900D01*
X240766261Y-101669900D01*
X240566302Y-101709674D01*
X240377944Y-101787695D01*
X240208426Y-101900963D01*
X240064263Y-102045126D01*
X239950995Y-102214644D01*
X239872974Y-102403002D01*
X239833200Y-102602961D01*
X239833200Y-102806839D01*
X239872974Y-103006798D01*
X239932132Y-103149618D01*
X239867894Y-103304702D01*
X239828120Y-103504661D01*
X229603208Y-103504661D01*
X229670551Y-103258497D01*
X229997967Y-102572053D01*
X230441771Y-101954434D01*
X230987931Y-101425170D01*
X231619185Y-101000985D01*
X232315573Y-100695292D01*
X233061001Y-100516331D01*
X233094595Y-100513777D01*
X232975222Y-100593539D01*
X232801119Y-100767642D01*
X232664327Y-100972366D01*
X232570103Y-101199842D01*
X232522068Y-101441330D01*
X232522068Y-101687550D01*
X232570103Y-101929038D01*
X232664327Y-102156514D01*
X232801119Y-102361238D01*
X232975222Y-102535341D01*
X233179946Y-102672133D01*
X233407422Y-102766357D01*
X233648910Y-102814392D01*
X233895130Y-102814392D01*
X234136618Y-102766357D01*
X234364094Y-102672133D01*
X234568818Y-102535341D01*
X234742921Y-102361238D01*
X234879713Y-102156514D01*
X234973937Y-101929038D01*
X235021972Y-101687550D01*
X235021972Y-101441330D01*
X234973937Y-101199842D01*
X234879713Y-100972366D01*
X234742921Y-100767642D01*
X234568818Y-100593539D01*
X234383376Y-100469631D01*
X261616428Y-100481998D01*
%TD*%
M02*
